<?xml version="1.0" encoding="utf-8" standalone="no"?>
<!DOCTYPE svg PUBLIC "-//W3C//DTD SVG 1.1//EN"
  "http://www.w3.org/Graphics/SVG/1.1/DTD/svg11.dtd">
<svg xmlns:xlink="http://www.w3.org/1999/xlink" width="460.8pt" height="345.6pt" viewBox="0 0 460.8 345.6" xmlns="http://www.w3.org/2000/svg" version="1.1">
 <metadata>
  <rdf:RDF xmlns:dc="http://purl.org/dc/elements/1.1/" xmlns:cc="http://creativecommons.org/ns#" xmlns:rdf="http://www.w3.org/1999/02/22-rdf-syntax-ns#">
   <cc:Work>
    <dc:type rdf:resource="http://purl.org/dc/dcmitype/StillImage"/>
    <dc:date>2024-02-28T12:51:22.466306</dc:date>
    <dc:format>image/svg+xml</dc:format>
    <dc:creator>
     <cc:Agent>
      <dc:title>Matplotlib v3.5.2, https://matplotlib.org/</dc:title>
     </cc:Agent>
    </dc:creator>
   </cc:Work>
  </rdf:RDF>
 </metadata>
 <defs>
  <style type="text/css">*{stroke-linejoin: round; stroke-linecap: butt}</style>
 </defs>
 <g id="figure_1">
  <g id="patch_1">
   <path d="M 0 345.6 
L 460.8 345.6 
L 460.8 0 
L 0 0 
z
" style="fill: #ffffff"/>
  </g>
  <g id="axes_1">
   <g id="patch_2">
    <path d="M 57.6 307.584 
L 414.72 307.584 
L 414.72 41.472 
L 57.6 41.472 
z
" style="fill: #ffffff"/>
   </g>
   <g id="PolyCollection_1">
    <defs>
     <path id="mf27682b72e" d="M 150.60593 -56.793804 
L 143.15407 -56.793804 
L 140.930101 -59.169947 
L 137.684476 -61.54609 
L 133.23674 -63.922234 
L 127.605055 -66.298377 
L 121.115172 -68.674521 
L 114.432862 -71.050664 
L 108.471865 -73.426807 
L 104.175644 -75.802951 
L 102.24 -78.179094 
L 102.894935 -80.555238 
L 105.849708 -82.931381 
L 110.420611 -85.307524 
L 115.766227 -87.683668 
L 121.117964 -90.059811 
L 125.926078 -92.435955 
L 129.900641 -94.812098 
L 132.971502 -97.188241 
L 135.21089 -99.564385 
L 136.761602 -101.940528 
L 137.795088 -104.316672 
L 138.494789 -106.692815 
L 139.041305 -109.068958 
L 139.583664 -111.445102 
L 140.206312 -113.821245 
L 140.916799 -116.197389 
L 141.667527 -118.573532 
L 142.397985 -120.949675 
L 143.067676 -123.325819 
L 143.659287 -125.701962 
L 144.157082 -128.078106 
L 144.5251 -130.454249 
L 144.708212 -132.830392 
L 144.660303 -135.206536 
L 144.38344 -137.582679 
L 143.952968 -139.958823 
L 143.508577 -142.334966 
L 143.208072 -144.711109 
L 143.163172 -147.087253 
L 143.393047 -149.463396 
L 143.825331 -151.83954 
L 144.343735 -154.215683 
L 144.848458 -156.591826 
L 145.289666 -158.96797 
L 145.660158 -161.344113 
L 145.965691 -163.720257 
L 146.201734 -166.0964 
L 146.351042 -168.472543 
L 146.396528 -170.848687 
L 146.33609 -173.22483 
L 146.190359 -175.600974 
L 146.001227 -177.977117 
L 145.822525 -180.35326 
L 145.705694 -182.729404 
L 145.684898 -185.105547 
L 145.767298 -187.481691 
L 145.932748 -189.857834 
L 146.143087 -192.233977 
L 146.356567 -194.610121 
L 146.540871 -196.986264 
L 146.679665 -199.362407 
L 146.771617 -201.738551 
L 146.824462 -204.114694 
L 146.848012 -206.490838 
L 146.849084 -208.866981 
L 146.829631 -211.243124 
L 146.788224 -213.619268 
L 146.724255 -215.995411 
L 146.643039 -218.371555 
L 146.558492 -220.747698 
L 146.49011 -223.123841 
L 146.454119 -225.499985 
L 146.453592 -227.876128 
L 146.474815 -230.252272 
L 146.494033 -232.628415 
L 146.49148 -235.004558 
L 146.463922 -237.380702 
L 146.427321 -239.756845 
L 146.407595 -242.132989 
L 146.425425 -244.509132 
L 146.48491 -246.885275 
L 146.572778 -249.261419 
L 146.667147 -251.637562 
L 146.748837 -254.013706 
L 146.808166 -256.389849 
L 146.845042 -258.765992 
L 146.86487 -261.142136 
L 146.874108 -263.518279 
L 146.877671 -265.894423 
L 146.878185 -268.270566 
L 146.876094 -270.646709 
L 146.869712 -273.022853 
L 146.855072 -275.398996 
L 146.826179 -277.77514 
L 146.776748 -280.151283 
L 146.704044 -282.527426 
L 146.613642 -284.90357 
L 146.521836 -287.279713 
L 146.45219 -289.655857 
L 146.426085 -292.032 
L 147.333915 -292.032 
L 147.333915 -292.032 
L 147.30781 -289.655857 
L 147.238164 -287.279713 
L 147.146358 -284.90357 
L 147.055956 -282.527426 
L 146.983252 -280.151283 
L 146.933821 -277.77514 
L 146.904928 -275.398996 
L 146.890288 -273.022853 
L 146.883906 -270.646709 
L 146.881815 -268.270566 
L 146.882329 -265.894423 
L 146.885892 -263.518279 
L 146.89513 -261.142136 
L 146.914958 -258.765992 
L 146.951834 -256.389849 
L 147.011163 -254.013706 
L 147.092853 -251.637562 
L 147.187222 -249.261419 
L 147.27509 -246.885275 
L 147.334575 -244.509132 
L 147.352405 -242.132989 
L 147.332679 -239.756845 
L 147.296078 -237.380702 
L 147.26852 -235.004558 
L 147.265967 -232.628415 
L 147.285185 -230.252272 
L 147.306408 -227.876128 
L 147.305881 -225.499985 
L 147.26989 -223.123841 
L 147.201508 -220.747698 
L 147.116961 -218.371555 
L 147.035745 -215.995411 
L 146.971776 -213.619268 
L 146.930369 -211.243124 
L 146.910916 -208.866981 
L 146.911988 -206.490838 
L 146.935538 -204.114694 
L 146.988383 -201.738551 
L 147.080335 -199.362407 
L 147.219129 -196.986264 
L 147.403433 -194.610121 
L 147.616913 -192.233977 
L 147.827252 -189.857834 
L 147.992702 -187.481691 
L 148.075102 -185.105547 
L 148.054306 -182.729404 
L 147.937475 -180.35326 
L 147.758773 -177.977117 
L 147.569641 -175.600974 
L 147.42391 -173.22483 
L 147.363472 -170.848687 
L 147.408958 -168.472543 
L 147.558266 -166.0964 
L 147.794309 -163.720257 
L 148.099842 -161.344113 
L 148.470334 -158.96797 
L 148.911542 -156.591826 
L 149.416265 -154.215683 
L 149.934669 -151.83954 
L 150.366953 -149.463396 
L 150.596828 -147.087253 
L 150.551928 -144.711109 
L 150.251423 -142.334966 
L 149.807032 -139.958823 
L 149.37656 -137.582679 
L 149.099697 -135.206536 
L 149.051788 -132.830392 
L 149.2349 -130.454249 
L 149.602918 -128.078106 
L 150.100713 -125.701962 
L 150.692324 -123.325819 
L 151.362015 -120.949675 
L 152.092473 -118.573532 
L 152.843201 -116.197389 
L 153.553688 -113.821245 
L 154.176336 -111.445102 
L 154.718695 -109.068958 
L 155.265211 -106.692815 
L 155.964912 -104.316672 
L 156.998398 -101.940528 
L 158.54911 -99.564385 
L 160.788498 -97.188241 
L 163.859359 -94.812098 
L 167.833922 -92.435955 
L 172.642036 -90.059811 
L 177.993773 -87.683668 
L 183.339389 -85.307524 
L 187.910292 -82.931381 
L 190.865065 -80.555238 
L 191.52 -78.179094 
L 189.584356 -75.802951 
L 185.288135 -73.426807 
L 179.327138 -71.050664 
L 172.644828 -68.674521 
L 166.154945 -66.298377 
L 160.52326 -63.922234 
L 156.075524 -61.54609 
L 152.829899 -59.169947 
L 150.60593 -56.793804 
z
" style="stroke: #000000; stroke-width: 0.6"/>
    </defs>
    <g clip-path="url(#pc1410a3be6)">
     <use xlink:href="#mf27682b72e" x="0" y="345.6" style="fill: #ffffff; stroke: #000000; stroke-width: 0.6"/>
    </g>
   </g>
   <g id="PolyCollection_2">
    <defs>
     <path id="m43e998b831" d="M 331.037816 -50.112 
L 319.842184 -50.112 
L 318.023475 -52.525947 
L 315.806204 -54.939895 
L 313.131007 -57.353842 
L 309.945113 -59.76779 
L 306.227821 -62.181737 
L 302.025296 -64.595684 
L 297.48375 -67.009632 
L 292.864433 -69.423579 
L 288.525152 -71.837527 
L 284.863512 -74.251474 
L 282.233696 -76.665421 
L 280.863204 -79.079369 
L 280.8 -81.493316 
L 281.910232 -83.907264 
L 283.926496 -86.321211 
L 286.526625 -88.735159 
L 289.412902 -91.149106 
L 292.365417 -93.563053 
L 295.257369 -95.977001 
L 298.036704 -98.390948 
L 300.689968 -100.804896 
L 303.207247 -103.218843 
L 305.562195 -105.63279 
L 307.711991 -108.046738 
L 309.612727 -110.460685 
L 311.239682 -112.874633 
L 312.601136 -115.28858 
L 313.738708 -117.702527 
L 314.714445 -120.116475 
L 315.591319 -122.530422 
L 316.416331 -124.94437 
L 317.212962 -127.358317 
L 317.984131 -129.772264 
L 318.721561 -132.186212 
L 319.415364 -134.600159 
L 320.059305 -137.014107 
L 320.650962 -139.428054 
L 321.189046 -141.842001 
L 321.670991 -144.255949 
L 322.092553 -146.669896 
L 322.449175 -149.083844 
L 322.737749 -151.497791 
L 322.957657 -153.911738 
L 323.111092 -156.325686 
L 323.203322 -158.739633 
L 323.243451 -161.153581 
L 323.245299 -163.567528 
L 323.227316 -165.981476 
L 323.210559 -168.395423 
L 323.21471 -170.80937 
L 323.253353 -173.223318 
L 323.330456 -175.637265 
L 323.439701 -178.051213 
L 323.567203 -180.46516 
L 323.696691 -182.879107 
L 323.815145 -185.293055 
L 323.916692 -187.707002 
L 324.003285 -190.12095 
L 324.082122 -192.534897 
L 324.161221 -194.948844 
L 324.245338 -197.362792 
L 324.334128 -199.776739 
L 324.423161 -202.190687 
L 324.506874 -204.604634 
L 324.581541 -207.018581 
L 324.646577 -209.432529 
L 324.703646 -211.846476 
L 324.754486 -214.260424 
L 324.799123 -216.674371 
L 324.835768 -219.088318 
L 324.862507 -221.502266 
L 324.879643 -223.916213 
L 324.891066 -226.330161 
L 324.903585 -228.744108 
L 324.924334 -231.158055 
L 324.957462 -233.572003 
L 325.001675 -235.98595 
L 325.049777 -238.399898 
L 325.09034 -240.813845 
L 325.110835 -243.227793 
L 325.101108 -245.64174 
L 325.056207 -248.055687 
L 324.977876 -250.469635 
L 324.87438 -252.883582 
L 324.758618 -255.29753 
L 324.644759 -257.711477 
L 324.544079 -260.125424 
L 324.461139 -262.539372 
L 324.391699 -264.953319 
L 324.323591 -267.367267 
L 324.240957 -269.781214 
L 324.130993 -272.195161 
L 323.990998 -274.609109 
L 323.832829 -277.023056 
L 323.682358 -279.437004 
L 323.573318 -281.850951 
L 323.537319 -284.264898 
L 323.59371 -286.678846 
L 323.743222 -289.092793 
L 327.136778 -289.092793 
L 327.136778 -289.092793 
L 327.28629 -286.678846 
L 327.342681 -284.264898 
L 327.306682 -281.850951 
L 327.197642 -279.437004 
L 327.047171 -277.023056 
L 326.889002 -274.609109 
L 326.749007 -272.195161 
L 326.639043 -269.781214 
L 326.556409 -267.367267 
L 326.488301 -264.953319 
L 326.418861 -262.539372 
L 326.335921 -260.125424 
L 326.235241 -257.711477 
L 326.121382 -255.29753 
L 326.00562 -252.883582 
L 325.902124 -250.469635 
L 325.823793 -248.055687 
L 325.778892 -245.64174 
L 325.769165 -243.227793 
L 325.78966 -240.813845 
L 325.830223 -238.399898 
L 325.878325 -235.98595 
L 325.922538 -233.572003 
L 325.955666 -231.158055 
L 325.976415 -228.744108 
L 325.988934 -226.330161 
L 326.000357 -223.916213 
L 326.017493 -221.502266 
L 326.044232 -219.088318 
L 326.080877 -216.674371 
L 326.125514 -214.260424 
L 326.176354 -211.846476 
L 326.233423 -209.432529 
L 326.298459 -207.018581 
L 326.373126 -204.604634 
L 326.456839 -202.190687 
L 326.545872 -199.776739 
L 326.634662 -197.362792 
L 326.718779 -194.948844 
L 326.797878 -192.534897 
L 326.876715 -190.12095 
L 326.963308 -187.707002 
L 327.064855 -185.293055 
L 327.183309 -182.879107 
L 327.312797 -180.46516 
L 327.440299 -178.051213 
L 327.549544 -175.637265 
L 327.626647 -173.223318 
L 327.66529 -170.80937 
L 327.669441 -168.395423 
L 327.652684 -165.981476 
L 327.634701 -163.567528 
L 327.636549 -161.153581 
L 327.676678 -158.739633 
L 327.768908 -156.325686 
L 327.922343 -153.911738 
L 328.142251 -151.497791 
L 328.430825 -149.083844 
L 328.787447 -146.669896 
L 329.209009 -144.255949 
L 329.690954 -141.842001 
L 330.229038 -139.428054 
L 330.820695 -137.014107 
L 331.464636 -134.600159 
L 332.158439 -132.186212 
L 332.895869 -129.772264 
L 333.667038 -127.358317 
L 334.463669 -124.94437 
L 335.288681 -122.530422 
L 336.165555 -120.116475 
L 337.141292 -117.702527 
L 338.278864 -115.28858 
L 339.640318 -112.874633 
L 341.267273 -110.460685 
L 343.168009 -108.046738 
L 345.317805 -105.63279 
L 347.672753 -103.218843 
L 350.190032 -100.804896 
L 352.843296 -98.390948 
L 355.622631 -95.977001 
L 358.514583 -93.563053 
L 361.467098 -91.149106 
L 364.353375 -88.735159 
L 366.953504 -86.321211 
L 368.969768 -83.907264 
L 370.08 -81.493316 
L 370.016796 -79.079369 
L 368.646304 -76.665421 
L 366.016488 -74.251474 
L 362.354848 -71.837527 
L 358.015567 -69.423579 
L 353.39625 -67.009632 
L 348.854704 -64.595684 
L 344.652179 -62.181737 
L 340.934887 -59.76779 
L 337.748993 -57.353842 
L 335.073796 -54.939895 
L 332.856525 -52.525947 
L 331.037816 -50.112 
z
" style="stroke: #000000; stroke-width: 0.6"/>
    </defs>
    <g clip-path="url(#pc1410a3be6)">
     <use xlink:href="#m43e998b831" x="0" y="345.6" style="fill: #ffffff; stroke: #000000; stroke-width: 0.6"/>
    </g>
   </g>
   <g id="matplotlib.axis_1">
    <g id="xtick_1">
     <g id="line2d_1">
      <defs>
       <path id="m07f53412b1" d="M 0 0 
L 0 3.5 
" style="stroke: #000000; stroke-width: 0.8"/>
      </defs>
      <g>
       <use xlink:href="#m07f53412b1" x="146.88" y="307.584" style="stroke: #000000; stroke-width: 0.8"/>
      </g>
     </g>
     <g id="text_1">
      <!-- Version A -->
      <g transform="translate(123.483906 322.182437)scale(0.1 -0.1)">
       <defs>
        <path id="DejaVuSans-56" d="M 1831 0 
L 50 4666 
L 709 4666 
L 2188 738 
L 3669 4666 
L 4325 4666 
L 2547 0 
L 1831 0 
z
" transform="scale(0.015625)"/>
        <path id="DejaVuSans-65" d="M 3597 1894 
L 3597 1613 
L 953 1613 
Q 991 1019 1311 708 
Q 1631 397 2203 397 
Q 2534 397 2845 478 
Q 3156 559 3463 722 
L 3463 178 
Q 3153 47 2828 -22 
Q 2503 -91 2169 -91 
Q 1331 -91 842 396 
Q 353 884 353 1716 
Q 353 2575 817 3079 
Q 1281 3584 2069 3584 
Q 2775 3584 3186 3129 
Q 3597 2675 3597 1894 
z
M 3022 2063 
Q 3016 2534 2758 2815 
Q 2500 3097 2075 3097 
Q 1594 3097 1305 2825 
Q 1016 2553 972 2059 
L 3022 2063 
z
" transform="scale(0.015625)"/>
        <path id="DejaVuSans-72" d="M 2631 2963 
Q 2534 3019 2420 3045 
Q 2306 3072 2169 3072 
Q 1681 3072 1420 2755 
Q 1159 2438 1159 1844 
L 1159 0 
L 581 0 
L 581 3500 
L 1159 3500 
L 1159 2956 
Q 1341 3275 1631 3429 
Q 1922 3584 2338 3584 
Q 2397 3584 2469 3576 
Q 2541 3569 2628 3553 
L 2631 2963 
z
" transform="scale(0.015625)"/>
        <path id="DejaVuSans-73" d="M 2834 3397 
L 2834 2853 
Q 2591 2978 2328 3040 
Q 2066 3103 1784 3103 
Q 1356 3103 1142 2972 
Q 928 2841 928 2578 
Q 928 2378 1081 2264 
Q 1234 2150 1697 2047 
L 1894 2003 
Q 2506 1872 2764 1633 
Q 3022 1394 3022 966 
Q 3022 478 2636 193 
Q 2250 -91 1575 -91 
Q 1294 -91 989 -36 
Q 684 19 347 128 
L 347 722 
Q 666 556 975 473 
Q 1284 391 1588 391 
Q 1994 391 2212 530 
Q 2431 669 2431 922 
Q 2431 1156 2273 1281 
Q 2116 1406 1581 1522 
L 1381 1569 
Q 847 1681 609 1914 
Q 372 2147 372 2553 
Q 372 3047 722 3315 
Q 1072 3584 1716 3584 
Q 2034 3584 2315 3537 
Q 2597 3491 2834 3397 
z
" transform="scale(0.015625)"/>
        <path id="DejaVuSans-69" d="M 603 3500 
L 1178 3500 
L 1178 0 
L 603 0 
L 603 3500 
z
M 603 4863 
L 1178 4863 
L 1178 4134 
L 603 4134 
L 603 4863 
z
" transform="scale(0.015625)"/>
        <path id="DejaVuSans-6f" d="M 1959 3097 
Q 1497 3097 1228 2736 
Q 959 2375 959 1747 
Q 959 1119 1226 758 
Q 1494 397 1959 397 
Q 2419 397 2687 759 
Q 2956 1122 2956 1747 
Q 2956 2369 2687 2733 
Q 2419 3097 1959 3097 
z
M 1959 3584 
Q 2709 3584 3137 3096 
Q 3566 2609 3566 1747 
Q 3566 888 3137 398 
Q 2709 -91 1959 -91 
Q 1206 -91 779 398 
Q 353 888 353 1747 
Q 353 2609 779 3096 
Q 1206 3584 1959 3584 
z
" transform="scale(0.015625)"/>
        <path id="DejaVuSans-6e" d="M 3513 2113 
L 3513 0 
L 2938 0 
L 2938 2094 
Q 2938 2591 2744 2837 
Q 2550 3084 2163 3084 
Q 1697 3084 1428 2787 
Q 1159 2491 1159 1978 
L 1159 0 
L 581 0 
L 581 3500 
L 1159 3500 
L 1159 2956 
Q 1366 3272 1645 3428 
Q 1925 3584 2291 3584 
Q 2894 3584 3203 3211 
Q 3513 2838 3513 2113 
z
" transform="scale(0.015625)"/>
        <path id="DejaVuSans-20" transform="scale(0.015625)"/>
        <path id="DejaVuSans-41" d="M 2188 4044 
L 1331 1722 
L 3047 1722 
L 2188 4044 
z
M 1831 4666 
L 2547 4666 
L 4325 0 
L 3669 0 
L 3244 1197 
L 1141 1197 
L 716 0 
L 50 0 
L 1831 4666 
z
" transform="scale(0.015625)"/>
       </defs>
       <use xlink:href="#DejaVuSans-56"/>
       <use xlink:href="#DejaVuSans-65" x="60.658203"/>
       <use xlink:href="#DejaVuSans-72" x="122.181641"/>
       <use xlink:href="#DejaVuSans-73" x="163.294922"/>
       <use xlink:href="#DejaVuSans-69" x="215.394531"/>
       <use xlink:href="#DejaVuSans-6f" x="243.177734"/>
       <use xlink:href="#DejaVuSans-6e" x="304.359375"/>
       <use xlink:href="#DejaVuSans-20" x="367.738281"/>
       <use xlink:href="#DejaVuSans-41" x="399.525391"/>
      </g>
     </g>
    </g>
    <g id="xtick_2">
     <g id="line2d_2">
      <g>
       <use xlink:href="#m07f53412b1" x="325.44" y="307.584" style="stroke: #000000; stroke-width: 0.8"/>
      </g>
     </g>
     <g id="text_2">
      <!-- Version B -->
      <g transform="translate(302.03375 322.182437)scale(0.1 -0.1)">
       <defs>
        <path id="DejaVuSans-42" d="M 1259 2228 
L 1259 519 
L 2272 519 
Q 2781 519 3026 730 
Q 3272 941 3272 1375 
Q 3272 1813 3026 2020 
Q 2781 2228 2272 2228 
L 1259 2228 
z
M 1259 4147 
L 1259 2741 
L 2194 2741 
Q 2656 2741 2882 2914 
Q 3109 3088 3109 3444 
Q 3109 3797 2882 3972 
Q 2656 4147 2194 4147 
L 1259 4147 
z
M 628 4666 
L 2241 4666 
Q 2963 4666 3353 4366 
Q 3744 4066 3744 3513 
Q 3744 3084 3544 2831 
Q 3344 2578 2956 2516 
Q 3422 2416 3680 2098 
Q 3938 1781 3938 1306 
Q 3938 681 3513 340 
Q 3088 0 2303 0 
L 628 0 
L 628 4666 
z
" transform="scale(0.015625)"/>
       </defs>
       <use xlink:href="#DejaVuSans-56"/>
       <use xlink:href="#DejaVuSans-65" x="60.658203"/>
       <use xlink:href="#DejaVuSans-72" x="122.181641"/>
       <use xlink:href="#DejaVuSans-73" x="163.294922"/>
       <use xlink:href="#DejaVuSans-69" x="215.394531"/>
       <use xlink:href="#DejaVuSans-6f" x="243.177734"/>
       <use xlink:href="#DejaVuSans-6e" x="304.359375"/>
       <use xlink:href="#DejaVuSans-20" x="367.738281"/>
       <use xlink:href="#DejaVuSans-42" x="399.525391"/>
      </g>
     </g>
    </g>
   </g>
   <g id="matplotlib.axis_2">
    <g id="ytick_1">
     <g id="line2d_3">
      <defs>
       <path id="m5e4cb3e339" d="M 0 0 
L -3.5 0 
" style="stroke: #000000; stroke-width: 0.8"/>
      </defs>
      <g>
       <use xlink:href="#m5e4cb3e339" x="57.6" y="291.260442" style="stroke: #000000; stroke-width: 0.8"/>
      </g>
     </g>
     <g id="text_3">
      <!-- 8 -->
      <g transform="translate(44.2375 295.059661)scale(0.1 -0.1)">
       <defs>
        <path id="DejaVuSans-38" d="M 2034 2216 
Q 1584 2216 1326 1975 
Q 1069 1734 1069 1313 
Q 1069 891 1326 650 
Q 1584 409 2034 409 
Q 2484 409 2743 651 
Q 3003 894 3003 1313 
Q 3003 1734 2745 1975 
Q 2488 2216 2034 2216 
z
M 1403 2484 
Q 997 2584 770 2862 
Q 544 3141 544 3541 
Q 544 4100 942 4425 
Q 1341 4750 2034 4750 
Q 2731 4750 3128 4425 
Q 3525 4100 3525 3541 
Q 3525 3141 3298 2862 
Q 3072 2584 2669 2484 
Q 3125 2378 3379 2068 
Q 3634 1759 3634 1313 
Q 3634 634 3220 271 
Q 2806 -91 2034 -91 
Q 1263 -91 848 271 
Q 434 634 434 1313 
Q 434 1759 690 2068 
Q 947 2378 1403 2484 
z
M 1172 3481 
Q 1172 3119 1398 2916 
Q 1625 2713 2034 2713 
Q 2441 2713 2670 2916 
Q 2900 3119 2900 3481 
Q 2900 3844 2670 4047 
Q 2441 4250 2034 4250 
Q 1625 4250 1398 4047 
Q 1172 3844 1172 3481 
z
" transform="scale(0.015625)"/>
       </defs>
       <use xlink:href="#DejaVuSans-38"/>
      </g>
     </g>
    </g>
    <g id="ytick_2">
     <g id="line2d_4">
      <g>
       <use xlink:href="#m5e4cb3e339" x="57.6" y="245.726925" style="stroke: #000000; stroke-width: 0.8"/>
      </g>
     </g>
     <g id="text_4">
      <!-- 10 -->
      <g transform="translate(37.875 249.526144)scale(0.1 -0.1)">
       <defs>
        <path id="DejaVuSans-31" d="M 794 531 
L 1825 531 
L 1825 4091 
L 703 3866 
L 703 4441 
L 1819 4666 
L 2450 4666 
L 2450 531 
L 3481 531 
L 3481 0 
L 794 0 
L 794 531 
z
" transform="scale(0.015625)"/>
        <path id="DejaVuSans-30" d="M 2034 4250 
Q 1547 4250 1301 3770 
Q 1056 3291 1056 2328 
Q 1056 1369 1301 889 
Q 1547 409 2034 409 
Q 2525 409 2770 889 
Q 3016 1369 3016 2328 
Q 3016 3291 2770 3770 
Q 2525 4250 2034 4250 
z
M 2034 4750 
Q 2819 4750 3233 4129 
Q 3647 3509 3647 2328 
Q 3647 1150 3233 529 
Q 2819 -91 2034 -91 
Q 1250 -91 836 529 
Q 422 1150 422 2328 
Q 422 3509 836 4129 
Q 1250 4750 2034 4750 
z
" transform="scale(0.015625)"/>
       </defs>
       <use xlink:href="#DejaVuSans-31"/>
       <use xlink:href="#DejaVuSans-30" x="63.623047"/>
      </g>
     </g>
    </g>
    <g id="ytick_3">
     <g id="line2d_5">
      <g>
       <use xlink:href="#m5e4cb3e339" x="57.6" y="200.193407" style="stroke: #000000; stroke-width: 0.8"/>
      </g>
     </g>
     <g id="text_5">
      <!-- 12 -->
      <g transform="translate(37.875 203.992626)scale(0.1 -0.1)">
       <defs>
        <path id="DejaVuSans-32" d="M 1228 531 
L 3431 531 
L 3431 0 
L 469 0 
L 469 531 
Q 828 903 1448 1529 
Q 2069 2156 2228 2338 
Q 2531 2678 2651 2914 
Q 2772 3150 2772 3378 
Q 2772 3750 2511 3984 
Q 2250 4219 1831 4219 
Q 1534 4219 1204 4116 
Q 875 4013 500 3803 
L 500 4441 
Q 881 4594 1212 4672 
Q 1544 4750 1819 4750 
Q 2544 4750 2975 4387 
Q 3406 4025 3406 3419 
Q 3406 3131 3298 2873 
Q 3191 2616 2906 2266 
Q 2828 2175 2409 1742 
Q 1991 1309 1228 531 
z
" transform="scale(0.015625)"/>
       </defs>
       <use xlink:href="#DejaVuSans-31"/>
       <use xlink:href="#DejaVuSans-32" x="63.623047"/>
      </g>
     </g>
    </g>
    <g id="ytick_4">
     <g id="line2d_6">
      <g>
       <use xlink:href="#m5e4cb3e339" x="57.6" y="154.65989" style="stroke: #000000; stroke-width: 0.8"/>
      </g>
     </g>
     <g id="text_6">
      <!-- 14 -->
      <g transform="translate(37.875 158.459109)scale(0.1 -0.1)">
       <defs>
        <path id="DejaVuSans-34" d="M 2419 4116 
L 825 1625 
L 2419 1625 
L 2419 4116 
z
M 2253 4666 
L 3047 4666 
L 3047 1625 
L 3713 1625 
L 3713 1100 
L 3047 1100 
L 3047 0 
L 2419 0 
L 2419 1100 
L 313 1100 
L 313 1709 
L 2253 4666 
z
" transform="scale(0.015625)"/>
       </defs>
       <use xlink:href="#DejaVuSans-31"/>
       <use xlink:href="#DejaVuSans-34" x="63.623047"/>
      </g>
     </g>
    </g>
    <g id="ytick_5">
     <g id="line2d_7">
      <g>
       <use xlink:href="#m5e4cb3e339" x="57.6" y="109.126372" style="stroke: #000000; stroke-width: 0.8"/>
      </g>
     </g>
     <g id="text_7">
      <!-- 16 -->
      <g transform="translate(37.875 112.925591)scale(0.1 -0.1)">
       <defs>
        <path id="DejaVuSans-36" d="M 2113 2584 
Q 1688 2584 1439 2293 
Q 1191 2003 1191 1497 
Q 1191 994 1439 701 
Q 1688 409 2113 409 
Q 2538 409 2786 701 
Q 3034 994 3034 1497 
Q 3034 2003 2786 2293 
Q 2538 2584 2113 2584 
z
M 3366 4563 
L 3366 3988 
Q 3128 4100 2886 4159 
Q 2644 4219 2406 4219 
Q 1781 4219 1451 3797 
Q 1122 3375 1075 2522 
Q 1259 2794 1537 2939 
Q 1816 3084 2150 3084 
Q 2853 3084 3261 2657 
Q 3669 2231 3669 1497 
Q 3669 778 3244 343 
Q 2819 -91 2113 -91 
Q 1303 -91 875 529 
Q 447 1150 447 2328 
Q 447 3434 972 4092 
Q 1497 4750 2381 4750 
Q 2619 4750 2861 4703 
Q 3103 4656 3366 4563 
z
" transform="scale(0.015625)"/>
       </defs>
       <use xlink:href="#DejaVuSans-31"/>
       <use xlink:href="#DejaVuSans-36" x="63.623047"/>
      </g>
     </g>
    </g>
    <g id="ytick_6">
     <g id="line2d_8">
      <g>
       <use xlink:href="#m5e4cb3e339" x="57.6" y="63.592855" style="stroke: #000000; stroke-width: 0.8"/>
      </g>
     </g>
     <g id="text_8">
      <!-- 18 -->
      <g transform="translate(37.875 67.392074)scale(0.1 -0.1)">
       <use xlink:href="#DejaVuSans-31"/>
       <use xlink:href="#DejaVuSans-38" x="63.623047"/>
      </g>
     </g>
    </g>
    <g id="text_9">
     <!-- Energy Consumption (J) -->
     <g transform="translate(31.795312 233.703781)rotate(-90)scale(0.1 -0.1)">
      <defs>
       <path id="DejaVuSans-45" d="M 628 4666 
L 3578 4666 
L 3578 4134 
L 1259 4134 
L 1259 2753 
L 3481 2753 
L 3481 2222 
L 1259 2222 
L 1259 531 
L 3634 531 
L 3634 0 
L 628 0 
L 628 4666 
z
" transform="scale(0.015625)"/>
       <path id="DejaVuSans-67" d="M 2906 1791 
Q 2906 2416 2648 2759 
Q 2391 3103 1925 3103 
Q 1463 3103 1205 2759 
Q 947 2416 947 1791 
Q 947 1169 1205 825 
Q 1463 481 1925 481 
Q 2391 481 2648 825 
Q 2906 1169 2906 1791 
z
M 3481 434 
Q 3481 -459 3084 -895 
Q 2688 -1331 1869 -1331 
Q 1566 -1331 1297 -1286 
Q 1028 -1241 775 -1147 
L 775 -588 
Q 1028 -725 1275 -790 
Q 1522 -856 1778 -856 
Q 2344 -856 2625 -561 
Q 2906 -266 2906 331 
L 2906 616 
Q 2728 306 2450 153 
Q 2172 0 1784 0 
Q 1141 0 747 490 
Q 353 981 353 1791 
Q 353 2603 747 3093 
Q 1141 3584 1784 3584 
Q 2172 3584 2450 3431 
Q 2728 3278 2906 2969 
L 2906 3500 
L 3481 3500 
L 3481 434 
z
" transform="scale(0.015625)"/>
       <path id="DejaVuSans-79" d="M 2059 -325 
Q 1816 -950 1584 -1140 
Q 1353 -1331 966 -1331 
L 506 -1331 
L 506 -850 
L 844 -850 
Q 1081 -850 1212 -737 
Q 1344 -625 1503 -206 
L 1606 56 
L 191 3500 
L 800 3500 
L 1894 763 
L 2988 3500 
L 3597 3500 
L 2059 -325 
z
" transform="scale(0.015625)"/>
       <path id="DejaVuSans-43" d="M 4122 4306 
L 4122 3641 
Q 3803 3938 3442 4084 
Q 3081 4231 2675 4231 
Q 1875 4231 1450 3742 
Q 1025 3253 1025 2328 
Q 1025 1406 1450 917 
Q 1875 428 2675 428 
Q 3081 428 3442 575 
Q 3803 722 4122 1019 
L 4122 359 
Q 3791 134 3420 21 
Q 3050 -91 2638 -91 
Q 1578 -91 968 557 
Q 359 1206 359 2328 
Q 359 3453 968 4101 
Q 1578 4750 2638 4750 
Q 3056 4750 3426 4639 
Q 3797 4528 4122 4306 
z
" transform="scale(0.015625)"/>
       <path id="DejaVuSans-75" d="M 544 1381 
L 544 3500 
L 1119 3500 
L 1119 1403 
Q 1119 906 1312 657 
Q 1506 409 1894 409 
Q 2359 409 2629 706 
Q 2900 1003 2900 1516 
L 2900 3500 
L 3475 3500 
L 3475 0 
L 2900 0 
L 2900 538 
Q 2691 219 2414 64 
Q 2138 -91 1772 -91 
Q 1169 -91 856 284 
Q 544 659 544 1381 
z
M 1991 3584 
L 1991 3584 
z
" transform="scale(0.015625)"/>
       <path id="DejaVuSans-6d" d="M 3328 2828 
Q 3544 3216 3844 3400 
Q 4144 3584 4550 3584 
Q 5097 3584 5394 3201 
Q 5691 2819 5691 2113 
L 5691 0 
L 5113 0 
L 5113 2094 
Q 5113 2597 4934 2840 
Q 4756 3084 4391 3084 
Q 3944 3084 3684 2787 
Q 3425 2491 3425 1978 
L 3425 0 
L 2847 0 
L 2847 2094 
Q 2847 2600 2669 2842 
Q 2491 3084 2119 3084 
Q 1678 3084 1418 2786 
Q 1159 2488 1159 1978 
L 1159 0 
L 581 0 
L 581 3500 
L 1159 3500 
L 1159 2956 
Q 1356 3278 1631 3431 
Q 1906 3584 2284 3584 
Q 2666 3584 2933 3390 
Q 3200 3197 3328 2828 
z
" transform="scale(0.015625)"/>
       <path id="DejaVuSans-70" d="M 1159 525 
L 1159 -1331 
L 581 -1331 
L 581 3500 
L 1159 3500 
L 1159 2969 
Q 1341 3281 1617 3432 
Q 1894 3584 2278 3584 
Q 2916 3584 3314 3078 
Q 3713 2572 3713 1747 
Q 3713 922 3314 415 
Q 2916 -91 2278 -91 
Q 1894 -91 1617 61 
Q 1341 213 1159 525 
z
M 3116 1747 
Q 3116 2381 2855 2742 
Q 2594 3103 2138 3103 
Q 1681 3103 1420 2742 
Q 1159 2381 1159 1747 
Q 1159 1113 1420 752 
Q 1681 391 2138 391 
Q 2594 391 2855 752 
Q 3116 1113 3116 1747 
z
" transform="scale(0.015625)"/>
       <path id="DejaVuSans-74" d="M 1172 4494 
L 1172 3500 
L 2356 3500 
L 2356 3053 
L 1172 3053 
L 1172 1153 
Q 1172 725 1289 603 
Q 1406 481 1766 481 
L 2356 481 
L 2356 0 
L 1766 0 
Q 1100 0 847 248 
Q 594 497 594 1153 
L 594 3053 
L 172 3053 
L 172 3500 
L 594 3500 
L 594 4494 
L 1172 4494 
z
" transform="scale(0.015625)"/>
       <path id="DejaVuSans-28" d="M 1984 4856 
Q 1566 4138 1362 3434 
Q 1159 2731 1159 2009 
Q 1159 1288 1364 580 
Q 1569 -128 1984 -844 
L 1484 -844 
Q 1016 -109 783 600 
Q 550 1309 550 2009 
Q 550 2706 781 3412 
Q 1013 4119 1484 4856 
L 1984 4856 
z
" transform="scale(0.015625)"/>
       <path id="DejaVuSans-4a" d="M 628 4666 
L 1259 4666 
L 1259 325 
Q 1259 -519 939 -900 
Q 619 -1281 -91 -1281 
L -331 -1281 
L -331 -750 
L -134 -750 
Q 284 -750 456 -515 
Q 628 -281 628 325 
L 628 4666 
z
" transform="scale(0.015625)"/>
       <path id="DejaVuSans-29" d="M 513 4856 
L 1013 4856 
Q 1481 4119 1714 3412 
Q 1947 2706 1947 2009 
Q 1947 1309 1714 600 
Q 1481 -109 1013 -844 
L 513 -844 
Q 928 -128 1133 580 
Q 1338 1288 1338 2009 
Q 1338 2731 1133 3434 
Q 928 4138 513 4856 
z
" transform="scale(0.015625)"/>
      </defs>
      <use xlink:href="#DejaVuSans-45"/>
      <use xlink:href="#DejaVuSans-6e" x="63.183594"/>
      <use xlink:href="#DejaVuSans-65" x="126.5625"/>
      <use xlink:href="#DejaVuSans-72" x="188.085938"/>
      <use xlink:href="#DejaVuSans-67" x="227.449219"/>
      <use xlink:href="#DejaVuSans-79" x="290.925781"/>
      <use xlink:href="#DejaVuSans-20" x="350.105469"/>
      <use xlink:href="#DejaVuSans-43" x="381.892578"/>
      <use xlink:href="#DejaVuSans-6f" x="451.716797"/>
      <use xlink:href="#DejaVuSans-6e" x="512.898438"/>
      <use xlink:href="#DejaVuSans-73" x="576.277344"/>
      <use xlink:href="#DejaVuSans-75" x="628.376953"/>
      <use xlink:href="#DejaVuSans-6d" x="691.755859"/>
      <use xlink:href="#DejaVuSans-70" x="789.167969"/>
      <use xlink:href="#DejaVuSans-74" x="852.644531"/>
      <use xlink:href="#DejaVuSans-69" x="891.853516"/>
      <use xlink:href="#DejaVuSans-6f" x="919.636719"/>
      <use xlink:href="#DejaVuSans-6e" x="980.818359"/>
      <use xlink:href="#DejaVuSans-20" x="1044.197266"/>
      <use xlink:href="#DejaVuSans-28" x="1075.984375"/>
      <use xlink:href="#DejaVuSans-4a" x="1114.998047"/>
      <use xlink:href="#DejaVuSans-29" x="1144.490234"/>
     </g>
    </g>
   </g>
   <g id="line2d_9">
    <path d="M 133.488 269.500516 
L 160.272 269.500516 
L 160.272 250.785675 
L 133.488 250.785675 
L 133.488 269.500516 
" clip-path="url(#pc1410a3be6)" style="fill: none; stroke: #000000; stroke-width: 0.5; stroke-linecap: square"/>
   </g>
   <g id="line2d_10">
    <path d="M 146.88 269.500516 
L 146.88 288.806196 
" clip-path="url(#pc1410a3be6)" style="fill: none; stroke: #000000; stroke-width: 0.5; stroke-linecap: square"/>
   </g>
   <g id="line2d_11">
    <path d="M 146.88 250.785675 
L 146.88 223.042325 
" clip-path="url(#pc1410a3be6)" style="fill: none; stroke: #000000; stroke-width: 0.5; stroke-linecap: square"/>
   </g>
   <g id="line2d_12">
    <path d="M 140.184 288.806196 
L 153.576 288.806196 
" clip-path="url(#pc1410a3be6)" style="fill: none; stroke: #000000; stroke-linecap: square"/>
   </g>
   <g id="line2d_13">
    <path d="M 140.184 223.042325 
L 153.576 223.042325 
" clip-path="url(#pc1410a3be6)" style="fill: none; stroke: #000000; stroke-linecap: square"/>
   </g>
   <g id="line2d_14">
    <defs>
     <path id="m79cd8262fe" d="M 0 3 
C 0.795609 3 1.55874 2.683901 2.12132 2.12132 
C 2.683901 1.55874 3 0.795609 3 0 
C 3 -0.795609 2.683901 -1.55874 2.12132 -2.12132 
C 1.55874 -2.683901 0.795609 -3 0 -3 
C -0.795609 -3 -1.55874 -2.683901 -2.12132 -2.12132 
C -2.683901 -1.55874 -3 -0.795609 -3 0 
C -3 0.795609 -2.683901 1.55874 -2.12132 2.12132 
C -1.55874 2.683901 -0.795609 3 0 3 
z
" style="stroke: #000000"/>
    </defs>
    <g clip-path="url(#pc1410a3be6)">
     <use xlink:href="#m79cd8262fe" x="146.88" y="186.010343" style="fill-opacity: 0; stroke: #000000"/>
     <use xlink:href="#m79cd8262fe" x="146.88" y="186.010343" style="fill-opacity: 0; stroke: #000000"/>
     <use xlink:href="#m79cd8262fe" x="146.88" y="186.010343" style="fill-opacity: 0; stroke: #000000"/>
     <use xlink:href="#m79cd8262fe" x="146.88" y="186.010343" style="fill-opacity: 0; stroke: #000000"/>
     <use xlink:href="#m79cd8262fe" x="146.88" y="186.010343" style="fill-opacity: 0; stroke: #000000"/>
     <use xlink:href="#m79cd8262fe" x="146.88" y="186.010343" style="fill-opacity: 0; stroke: #000000"/>
     <use xlink:href="#m79cd8262fe" x="146.88" y="186.010343" style="fill-opacity: 0; stroke: #000000"/>
     <use xlink:href="#m79cd8262fe" x="146.88" y="186.010343" style="fill-opacity: 0; stroke: #000000"/>
     <use xlink:href="#m79cd8262fe" x="146.88" y="186.010343" style="fill-opacity: 0; stroke: #000000"/>
     <use xlink:href="#m79cd8262fe" x="146.88" y="186.010343" style="fill-opacity: 0; stroke: #000000"/>
     <use xlink:href="#m79cd8262fe" x="146.88" y="165.51775" style="fill-opacity: 0; stroke: #000000"/>
     <use xlink:href="#m79cd8262fe" x="146.88" y="165.51775" style="fill-opacity: 0; stroke: #000000"/>
     <use xlink:href="#m79cd8262fe" x="146.88" y="165.51775" style="fill-opacity: 0; stroke: #000000"/>
     <use xlink:href="#m79cd8262fe" x="146.88" y="165.51775" style="fill-opacity: 0; stroke: #000000"/>
     <use xlink:href="#m79cd8262fe" x="146.88" y="165.51775" style="fill-opacity: 0; stroke: #000000"/>
     <use xlink:href="#m79cd8262fe" x="146.88" y="165.51775" style="fill-opacity: 0; stroke: #000000"/>
     <use xlink:href="#m79cd8262fe" x="146.88" y="165.51775" style="fill-opacity: 0; stroke: #000000"/>
     <use xlink:href="#m79cd8262fe" x="146.88" y="165.51775" style="fill-opacity: 0; stroke: #000000"/>
     <use xlink:href="#m79cd8262fe" x="146.88" y="165.51775" style="fill-opacity: 0; stroke: #000000"/>
     <use xlink:href="#m79cd8262fe" x="146.88" y="102.467714" style="fill-opacity: 0; stroke: #000000"/>
     <use xlink:href="#m79cd8262fe" x="146.88" y="102.467714" style="fill-opacity: 0; stroke: #000000"/>
     <use xlink:href="#m79cd8262fe" x="146.88" y="102.467714" style="fill-opacity: 0; stroke: #000000"/>
     <use xlink:href="#m79cd8262fe" x="146.88" y="102.467714" style="fill-opacity: 0; stroke: #000000"/>
     <use xlink:href="#m79cd8262fe" x="146.88" y="102.467714" style="fill-opacity: 0; stroke: #000000"/>
     <use xlink:href="#m79cd8262fe" x="146.88" y="102.467714" style="fill-opacity: 0; stroke: #000000"/>
     <use xlink:href="#m79cd8262fe" x="146.88" y="102.467714" style="fill-opacity: 0; stroke: #000000"/>
     <use xlink:href="#m79cd8262fe" x="146.88" y="102.467714" style="fill-opacity: 0; stroke: #000000"/>
     <use xlink:href="#m79cd8262fe" x="146.88" y="102.467714" style="fill-opacity: 0; stroke: #000000"/>
     <use xlink:href="#m79cd8262fe" x="146.88" y="102.467714" style="fill-opacity: 0; stroke: #000000"/>
     <use xlink:href="#m79cd8262fe" x="146.88" y="195.671217" style="fill-opacity: 0; stroke: #000000"/>
     <use xlink:href="#m79cd8262fe" x="146.88" y="195.671217" style="fill-opacity: 0; stroke: #000000"/>
     <use xlink:href="#m79cd8262fe" x="146.88" y="195.671217" style="fill-opacity: 0; stroke: #000000"/>
     <use xlink:href="#m79cd8262fe" x="146.88" y="195.671217" style="fill-opacity: 0; stroke: #000000"/>
     <use xlink:href="#m79cd8262fe" x="146.88" y="195.671217" style="fill-opacity: 0; stroke: #000000"/>
     <use xlink:href="#m79cd8262fe" x="146.88" y="195.671217" style="fill-opacity: 0; stroke: #000000"/>
     <use xlink:href="#m79cd8262fe" x="146.88" y="195.671217" style="fill-opacity: 0; stroke: #000000"/>
     <use xlink:href="#m79cd8262fe" x="146.88" y="195.671217" style="fill-opacity: 0; stroke: #000000"/>
     <use xlink:href="#m79cd8262fe" x="146.88" y="195.671217" style="fill-opacity: 0; stroke: #000000"/>
     <use xlink:href="#m79cd8262fe" x="146.88" y="195.671217" style="fill-opacity: 0; stroke: #000000"/>
     <use xlink:href="#m79cd8262fe" x="146.88" y="202.539744" style="fill-opacity: 0; stroke: #000000"/>
     <use xlink:href="#m79cd8262fe" x="146.88" y="202.539744" style="fill-opacity: 0; stroke: #000000"/>
     <use xlink:href="#m79cd8262fe" x="146.88" y="202.539744" style="fill-opacity: 0; stroke: #000000"/>
     <use xlink:href="#m79cd8262fe" x="146.88" y="202.539744" style="fill-opacity: 0; stroke: #000000"/>
     <use xlink:href="#m79cd8262fe" x="146.88" y="202.539744" style="fill-opacity: 0; stroke: #000000"/>
     <use xlink:href="#m79cd8262fe" x="146.88" y="202.539744" style="fill-opacity: 0; stroke: #000000"/>
     <use xlink:href="#m79cd8262fe" x="146.88" y="202.539744" style="fill-opacity: 0; stroke: #000000"/>
     <use xlink:href="#m79cd8262fe" x="146.88" y="202.539744" style="fill-opacity: 0; stroke: #000000"/>
     <use xlink:href="#m79cd8262fe" x="146.88" y="202.539744" style="fill-opacity: 0; stroke: #000000"/>
     <use xlink:href="#m79cd8262fe" x="146.88" y="198.158595" style="fill-opacity: 0; stroke: #000000"/>
     <use xlink:href="#m79cd8262fe" x="146.88" y="198.158595" style="fill-opacity: 0; stroke: #000000"/>
     <use xlink:href="#m79cd8262fe" x="146.88" y="198.158595" style="fill-opacity: 0; stroke: #000000"/>
     <use xlink:href="#m79cd8262fe" x="146.88" y="198.158595" style="fill-opacity: 0; stroke: #000000"/>
     <use xlink:href="#m79cd8262fe" x="146.88" y="198.158595" style="fill-opacity: 0; stroke: #000000"/>
     <use xlink:href="#m79cd8262fe" x="146.88" y="198.158595" style="fill-opacity: 0; stroke: #000000"/>
     <use xlink:href="#m79cd8262fe" x="146.88" y="198.158595" style="fill-opacity: 0; stroke: #000000"/>
     <use xlink:href="#m79cd8262fe" x="146.88" y="198.158595" style="fill-opacity: 0; stroke: #000000"/>
     <use xlink:href="#m79cd8262fe" x="146.88" y="198.158595" style="fill-opacity: 0; stroke: #000000"/>
     <use xlink:href="#m79cd8262fe" x="146.88" y="120.000169" style="fill-opacity: 0; stroke: #000000"/>
     <use xlink:href="#m79cd8262fe" x="146.88" y="120.000169" style="fill-opacity: 0; stroke: #000000"/>
     <use xlink:href="#m79cd8262fe" x="146.88" y="120.000169" style="fill-opacity: 0; stroke: #000000"/>
     <use xlink:href="#m79cd8262fe" x="146.88" y="120.000169" style="fill-opacity: 0; stroke: #000000"/>
     <use xlink:href="#m79cd8262fe" x="146.88" y="120.000169" style="fill-opacity: 0; stroke: #000000"/>
     <use xlink:href="#m79cd8262fe" x="146.88" y="120.000169" style="fill-opacity: 0; stroke: #000000"/>
     <use xlink:href="#m79cd8262fe" x="146.88" y="120.000169" style="fill-opacity: 0; stroke: #000000"/>
     <use xlink:href="#m79cd8262fe" x="146.88" y="120.000169" style="fill-opacity: 0; stroke: #000000"/>
     <use xlink:href="#m79cd8262fe" x="146.88" y="120.000169" style="fill-opacity: 0; stroke: #000000"/>
     <use xlink:href="#m79cd8262fe" x="146.88" y="220.031946" style="fill-opacity: 0; stroke: #000000"/>
     <use xlink:href="#m79cd8262fe" x="146.88" y="220.031946" style="fill-opacity: 0; stroke: #000000"/>
     <use xlink:href="#m79cd8262fe" x="146.88" y="220.031946" style="fill-opacity: 0; stroke: #000000"/>
     <use xlink:href="#m79cd8262fe" x="146.88" y="220.031946" style="fill-opacity: 0; stroke: #000000"/>
     <use xlink:href="#m79cd8262fe" x="146.88" y="220.031946" style="fill-opacity: 0; stroke: #000000"/>
     <use xlink:href="#m79cd8262fe" x="146.88" y="220.031946" style="fill-opacity: 0; stroke: #000000"/>
     <use xlink:href="#m79cd8262fe" x="146.88" y="220.031946" style="fill-opacity: 0; stroke: #000000"/>
     <use xlink:href="#m79cd8262fe" x="146.88" y="220.031946" style="fill-opacity: 0; stroke: #000000"/>
     <use xlink:href="#m79cd8262fe" x="146.88" y="220.031946" style="fill-opacity: 0; stroke: #000000"/>
     <use xlink:href="#m79cd8262fe" x="146.88" y="220.031946" style="fill-opacity: 0; stroke: #000000"/>
     <use xlink:href="#m79cd8262fe" x="146.88" y="218.84004" style="fill-opacity: 0; stroke: #000000"/>
     <use xlink:href="#m79cd8262fe" x="146.88" y="218.84004" style="fill-opacity: 0; stroke: #000000"/>
     <use xlink:href="#m79cd8262fe" x="146.88" y="218.84004" style="fill-opacity: 0; stroke: #000000"/>
     <use xlink:href="#m79cd8262fe" x="146.88" y="218.84004" style="fill-opacity: 0; stroke: #000000"/>
     <use xlink:href="#m79cd8262fe" x="146.88" y="218.84004" style="fill-opacity: 0; stroke: #000000"/>
     <use xlink:href="#m79cd8262fe" x="146.88" y="218.84004" style="fill-opacity: 0; stroke: #000000"/>
     <use xlink:href="#m79cd8262fe" x="146.88" y="218.84004" style="fill-opacity: 0; stroke: #000000"/>
     <use xlink:href="#m79cd8262fe" x="146.88" y="218.84004" style="fill-opacity: 0; stroke: #000000"/>
     <use xlink:href="#m79cd8262fe" x="146.88" y="218.84004" style="fill-opacity: 0; stroke: #000000"/>
     <use xlink:href="#m79cd8262fe" x="146.88" y="218.84004" style="fill-opacity: 0; stroke: #000000"/>
     <use xlink:href="#m79cd8262fe" x="146.88" y="161.766251" style="fill-opacity: 0; stroke: #000000"/>
     <use xlink:href="#m79cd8262fe" x="146.88" y="161.766251" style="fill-opacity: 0; stroke: #000000"/>
     <use xlink:href="#m79cd8262fe" x="146.88" y="161.766251" style="fill-opacity: 0; stroke: #000000"/>
     <use xlink:href="#m79cd8262fe" x="146.88" y="161.766251" style="fill-opacity: 0; stroke: #000000"/>
     <use xlink:href="#m79cd8262fe" x="146.88" y="161.766251" style="fill-opacity: 0; stroke: #000000"/>
     <use xlink:href="#m79cd8262fe" x="146.88" y="161.766251" style="fill-opacity: 0; stroke: #000000"/>
     <use xlink:href="#m79cd8262fe" x="146.88" y="161.766251" style="fill-opacity: 0; stroke: #000000"/>
     <use xlink:href="#m79cd8262fe" x="146.88" y="161.766251" style="fill-opacity: 0; stroke: #000000"/>
     <use xlink:href="#m79cd8262fe" x="146.88" y="161.766251" style="fill-opacity: 0; stroke: #000000"/>
     <use xlink:href="#m79cd8262fe" x="146.88" y="199.01062" style="fill-opacity: 0; stroke: #000000"/>
     <use xlink:href="#m79cd8262fe" x="146.88" y="199.01062" style="fill-opacity: 0; stroke: #000000"/>
     <use xlink:href="#m79cd8262fe" x="146.88" y="199.01062" style="fill-opacity: 0; stroke: #000000"/>
     <use xlink:href="#m79cd8262fe" x="146.88" y="199.01062" style="fill-opacity: 0; stroke: #000000"/>
     <use xlink:href="#m79cd8262fe" x="146.88" y="199.01062" style="fill-opacity: 0; stroke: #000000"/>
     <use xlink:href="#m79cd8262fe" x="146.88" y="199.01062" style="fill-opacity: 0; stroke: #000000"/>
     <use xlink:href="#m79cd8262fe" x="146.88" y="199.01062" style="fill-opacity: 0; stroke: #000000"/>
     <use xlink:href="#m79cd8262fe" x="146.88" y="199.01062" style="fill-opacity: 0; stroke: #000000"/>
     <use xlink:href="#m79cd8262fe" x="146.88" y="199.01062" style="fill-opacity: 0; stroke: #000000"/>
     <use xlink:href="#m79cd8262fe" x="146.88" y="199.01062" style="fill-opacity: 0; stroke: #000000"/>
     <use xlink:href="#m79cd8262fe" x="146.88" y="157.938369" style="fill-opacity: 0; stroke: #000000"/>
     <use xlink:href="#m79cd8262fe" x="146.88" y="157.938369" style="fill-opacity: 0; stroke: #000000"/>
     <use xlink:href="#m79cd8262fe" x="146.88" y="157.938369" style="fill-opacity: 0; stroke: #000000"/>
     <use xlink:href="#m79cd8262fe" x="146.88" y="157.938369" style="fill-opacity: 0; stroke: #000000"/>
     <use xlink:href="#m79cd8262fe" x="146.88" y="157.938369" style="fill-opacity: 0; stroke: #000000"/>
     <use xlink:href="#m79cd8262fe" x="146.88" y="157.938369" style="fill-opacity: 0; stroke: #000000"/>
     <use xlink:href="#m79cd8262fe" x="146.88" y="157.938369" style="fill-opacity: 0; stroke: #000000"/>
     <use xlink:href="#m79cd8262fe" x="146.88" y="157.938369" style="fill-opacity: 0; stroke: #000000"/>
     <use xlink:href="#m79cd8262fe" x="146.88" y="157.938369" style="fill-opacity: 0; stroke: #000000"/>
     <use xlink:href="#m79cd8262fe" x="146.88" y="157.938369" style="fill-opacity: 0; stroke: #000000"/>
     <use xlink:href="#m79cd8262fe" x="146.88" y="199.868855" style="fill-opacity: 0; stroke: #000000"/>
     <use xlink:href="#m79cd8262fe" x="146.88" y="199.868855" style="fill-opacity: 0; stroke: #000000"/>
     <use xlink:href="#m79cd8262fe" x="146.88" y="199.868855" style="fill-opacity: 0; stroke: #000000"/>
     <use xlink:href="#m79cd8262fe" x="146.88" y="199.868855" style="fill-opacity: 0; stroke: #000000"/>
     <use xlink:href="#m79cd8262fe" x="146.88" y="199.868855" style="fill-opacity: 0; stroke: #000000"/>
     <use xlink:href="#m79cd8262fe" x="146.88" y="199.868855" style="fill-opacity: 0; stroke: #000000"/>
     <use xlink:href="#m79cd8262fe" x="146.88" y="199.868855" style="fill-opacity: 0; stroke: #000000"/>
     <use xlink:href="#m79cd8262fe" x="146.88" y="199.868855" style="fill-opacity: 0; stroke: #000000"/>
     <use xlink:href="#m79cd8262fe" x="146.88" y="199.868855" style="fill-opacity: 0; stroke: #000000"/>
     <use xlink:href="#m79cd8262fe" x="146.88" y="217.436832" style="fill-opacity: 0; stroke: #000000"/>
     <use xlink:href="#m79cd8262fe" x="146.88" y="217.436832" style="fill-opacity: 0; stroke: #000000"/>
     <use xlink:href="#m79cd8262fe" x="146.88" y="217.436832" style="fill-opacity: 0; stroke: #000000"/>
     <use xlink:href="#m79cd8262fe" x="146.88" y="217.436832" style="fill-opacity: 0; stroke: #000000"/>
     <use xlink:href="#m79cd8262fe" x="146.88" y="217.436832" style="fill-opacity: 0; stroke: #000000"/>
     <use xlink:href="#m79cd8262fe" x="146.88" y="217.436832" style="fill-opacity: 0; stroke: #000000"/>
     <use xlink:href="#m79cd8262fe" x="146.88" y="217.436832" style="fill-opacity: 0; stroke: #000000"/>
     <use xlink:href="#m79cd8262fe" x="146.88" y="217.436832" style="fill-opacity: 0; stroke: #000000"/>
     <use xlink:href="#m79cd8262fe" x="146.88" y="217.436832" style="fill-opacity: 0; stroke: #000000"/>
     <use xlink:href="#m79cd8262fe" x="146.88" y="217.436832" style="fill-opacity: 0; stroke: #000000"/>
     <use xlink:href="#m79cd8262fe" x="146.88" y="198.78729" style="fill-opacity: 0; stroke: #000000"/>
     <use xlink:href="#m79cd8262fe" x="146.88" y="198.78729" style="fill-opacity: 0; stroke: #000000"/>
     <use xlink:href="#m79cd8262fe" x="146.88" y="198.78729" style="fill-opacity: 0; stroke: #000000"/>
     <use xlink:href="#m79cd8262fe" x="146.88" y="198.78729" style="fill-opacity: 0; stroke: #000000"/>
     <use xlink:href="#m79cd8262fe" x="146.88" y="198.78729" style="fill-opacity: 0; stroke: #000000"/>
     <use xlink:href="#m79cd8262fe" x="146.88" y="198.78729" style="fill-opacity: 0; stroke: #000000"/>
     <use xlink:href="#m79cd8262fe" x="146.88" y="198.78729" style="fill-opacity: 0; stroke: #000000"/>
     <use xlink:href="#m79cd8262fe" x="146.88" y="198.78729" style="fill-opacity: 0; stroke: #000000"/>
     <use xlink:href="#m79cd8262fe" x="146.88" y="198.78729" style="fill-opacity: 0; stroke: #000000"/>
     <use xlink:href="#m79cd8262fe" x="146.88" y="198.78729" style="fill-opacity: 0; stroke: #000000"/>
     <use xlink:href="#m79cd8262fe" x="146.88" y="53.568" style="fill-opacity: 0; stroke: #000000"/>
     <use xlink:href="#m79cd8262fe" x="146.88" y="53.568" style="fill-opacity: 0; stroke: #000000"/>
     <use xlink:href="#m79cd8262fe" x="146.88" y="53.568" style="fill-opacity: 0; stroke: #000000"/>
     <use xlink:href="#m79cd8262fe" x="146.88" y="53.568" style="fill-opacity: 0; stroke: #000000"/>
     <use xlink:href="#m79cd8262fe" x="146.88" y="53.568" style="fill-opacity: 0; stroke: #000000"/>
     <use xlink:href="#m79cd8262fe" x="146.88" y="53.568" style="fill-opacity: 0; stroke: #000000"/>
     <use xlink:href="#m79cd8262fe" x="146.88" y="53.568" style="fill-opacity: 0; stroke: #000000"/>
     <use xlink:href="#m79cd8262fe" x="146.88" y="53.568" style="fill-opacity: 0; stroke: #000000"/>
     <use xlink:href="#m79cd8262fe" x="146.88" y="53.568" style="fill-opacity: 0; stroke: #000000"/>
     <use xlink:href="#m79cd8262fe" x="146.88" y="53.568" style="fill-opacity: 0; stroke: #000000"/>
     <use xlink:href="#m79cd8262fe" x="146.88" y="186.650285" style="fill-opacity: 0; stroke: #000000"/>
     <use xlink:href="#m79cd8262fe" x="146.88" y="186.650285" style="fill-opacity: 0; stroke: #000000"/>
     <use xlink:href="#m79cd8262fe" x="146.88" y="186.650285" style="fill-opacity: 0; stroke: #000000"/>
     <use xlink:href="#m79cd8262fe" x="146.88" y="186.650285" style="fill-opacity: 0; stroke: #000000"/>
     <use xlink:href="#m79cd8262fe" x="146.88" y="186.650285" style="fill-opacity: 0; stroke: #000000"/>
     <use xlink:href="#m79cd8262fe" x="146.88" y="186.650285" style="fill-opacity: 0; stroke: #000000"/>
     <use xlink:href="#m79cd8262fe" x="146.88" y="186.650285" style="fill-opacity: 0; stroke: #000000"/>
     <use xlink:href="#m79cd8262fe" x="146.88" y="186.650285" style="fill-opacity: 0; stroke: #000000"/>
     <use xlink:href="#m79cd8262fe" x="146.88" y="186.650285" style="fill-opacity: 0; stroke: #000000"/>
     <use xlink:href="#m79cd8262fe" x="146.88" y="200.739596" style="fill-opacity: 0; stroke: #000000"/>
     <use xlink:href="#m79cd8262fe" x="146.88" y="200.739596" style="fill-opacity: 0; stroke: #000000"/>
     <use xlink:href="#m79cd8262fe" x="146.88" y="200.739596" style="fill-opacity: 0; stroke: #000000"/>
     <use xlink:href="#m79cd8262fe" x="146.88" y="200.739596" style="fill-opacity: 0; stroke: #000000"/>
     <use xlink:href="#m79cd8262fe" x="146.88" y="200.739596" style="fill-opacity: 0; stroke: #000000"/>
     <use xlink:href="#m79cd8262fe" x="146.88" y="200.739596" style="fill-opacity: 0; stroke: #000000"/>
     <use xlink:href="#m79cd8262fe" x="146.88" y="200.739596" style="fill-opacity: 0; stroke: #000000"/>
     <use xlink:href="#m79cd8262fe" x="146.88" y="200.739596" style="fill-opacity: 0; stroke: #000000"/>
     <use xlink:href="#m79cd8262fe" x="146.88" y="200.739596" style="fill-opacity: 0; stroke: #000000"/>
     <use xlink:href="#m79cd8262fe" x="146.88" y="200.739596" style="fill-opacity: 0; stroke: #000000"/>
     <use xlink:href="#m79cd8262fe" x="146.88" y="198.686025" style="fill-opacity: 0; stroke: #000000"/>
     <use xlink:href="#m79cd8262fe" x="146.88" y="198.686025" style="fill-opacity: 0; stroke: #000000"/>
     <use xlink:href="#m79cd8262fe" x="146.88" y="198.686025" style="fill-opacity: 0; stroke: #000000"/>
     <use xlink:href="#m79cd8262fe" x="146.88" y="198.686025" style="fill-opacity: 0; stroke: #000000"/>
     <use xlink:href="#m79cd8262fe" x="146.88" y="198.686025" style="fill-opacity: 0; stroke: #000000"/>
     <use xlink:href="#m79cd8262fe" x="146.88" y="198.686025" style="fill-opacity: 0; stroke: #000000"/>
     <use xlink:href="#m79cd8262fe" x="146.88" y="198.686025" style="fill-opacity: 0; stroke: #000000"/>
     <use xlink:href="#m79cd8262fe" x="146.88" y="198.686025" style="fill-opacity: 0; stroke: #000000"/>
     <use xlink:href="#m79cd8262fe" x="146.88" y="198.686025" style="fill-opacity: 0; stroke: #000000"/>
     <use xlink:href="#m79cd8262fe" x="146.88" y="207.40225" style="fill-opacity: 0; stroke: #000000"/>
     <use xlink:href="#m79cd8262fe" x="146.88" y="207.40225" style="fill-opacity: 0; stroke: #000000"/>
     <use xlink:href="#m79cd8262fe" x="146.88" y="207.40225" style="fill-opacity: 0; stroke: #000000"/>
     <use xlink:href="#m79cd8262fe" x="146.88" y="207.40225" style="fill-opacity: 0; stroke: #000000"/>
     <use xlink:href="#m79cd8262fe" x="146.88" y="207.40225" style="fill-opacity: 0; stroke: #000000"/>
     <use xlink:href="#m79cd8262fe" x="146.88" y="207.40225" style="fill-opacity: 0; stroke: #000000"/>
     <use xlink:href="#m79cd8262fe" x="146.88" y="207.40225" style="fill-opacity: 0; stroke: #000000"/>
     <use xlink:href="#m79cd8262fe" x="146.88" y="207.40225" style="fill-opacity: 0; stroke: #000000"/>
     <use xlink:href="#m79cd8262fe" x="146.88" y="207.40225" style="fill-opacity: 0; stroke: #000000"/>
     <use xlink:href="#m79cd8262fe" x="146.88" y="207.40225" style="fill-opacity: 0; stroke: #000000"/>
     <use xlink:href="#m79cd8262fe" x="146.88" y="153.619143" style="fill-opacity: 0; stroke: #000000"/>
     <use xlink:href="#m79cd8262fe" x="146.88" y="153.619143" style="fill-opacity: 0; stroke: #000000"/>
    </g>
   </g>
   <g id="line2d_15">
    <path d="M 312.048 268.933657 
L 338.832 268.933657 
L 338.832 240.531009 
L 312.048 240.531009 
L 312.048 268.933657 
" clip-path="url(#pc1410a3be6)" style="fill: none; stroke: #000000; stroke-width: 0.5; stroke-linecap: square"/>
   </g>
   <g id="line2d_16">
    <path d="M 325.44 268.933657 
L 325.44 295.488 
" clip-path="url(#pc1410a3be6)" style="fill: none; stroke: #000000; stroke-width: 0.5; stroke-linecap: square"/>
   </g>
   <g id="line2d_17">
    <path d="M 325.44 240.531009 
L 325.44 203.342526 
" clip-path="url(#pc1410a3be6)" style="fill: none; stroke: #000000; stroke-width: 0.5; stroke-linecap: square"/>
   </g>
   <g id="line2d_18">
    <path d="M 318.744 295.488 
L 332.136 295.488 
" clip-path="url(#pc1410a3be6)" style="fill: none; stroke: #000000; stroke-linecap: square"/>
   </g>
   <g id="line2d_19">
    <path d="M 318.744 203.342526 
L 332.136 203.342526 
" clip-path="url(#pc1410a3be6)" style="fill: none; stroke: #000000; stroke-linecap: square"/>
   </g>
   <g id="line2d_20">
    <g clip-path="url(#pc1410a3be6)">
     <use xlink:href="#m79cd8262fe" x="325.44" y="170.139165" style="fill-opacity: 0; stroke: #000000"/>
     <use xlink:href="#m79cd8262fe" x="325.44" y="170.139165" style="fill-opacity: 0; stroke: #000000"/>
     <use xlink:href="#m79cd8262fe" x="325.44" y="170.139165" style="fill-opacity: 0; stroke: #000000"/>
     <use xlink:href="#m79cd8262fe" x="325.44" y="170.139165" style="fill-opacity: 0; stroke: #000000"/>
     <use xlink:href="#m79cd8262fe" x="325.44" y="170.139165" style="fill-opacity: 0; stroke: #000000"/>
     <use xlink:href="#m79cd8262fe" x="325.44" y="170.139165" style="fill-opacity: 0; stroke: #000000"/>
     <use xlink:href="#m79cd8262fe" x="325.44" y="170.139165" style="fill-opacity: 0; stroke: #000000"/>
     <use xlink:href="#m79cd8262fe" x="325.44" y="170.139165" style="fill-opacity: 0; stroke: #000000"/>
     <use xlink:href="#m79cd8262fe" x="325.44" y="170.139165" style="fill-opacity: 0; stroke: #000000"/>
     <use xlink:href="#m79cd8262fe" x="325.44" y="170.139165" style="fill-opacity: 0; stroke: #000000"/>
     <use xlink:href="#m79cd8262fe" x="325.44" y="61.042251" style="fill-opacity: 0; stroke: #000000"/>
     <use xlink:href="#m79cd8262fe" x="325.44" y="61.042251" style="fill-opacity: 0; stroke: #000000"/>
     <use xlink:href="#m79cd8262fe" x="325.44" y="61.042251" style="fill-opacity: 0; stroke: #000000"/>
     <use xlink:href="#m79cd8262fe" x="325.44" y="61.042251" style="fill-opacity: 0; stroke: #000000"/>
     <use xlink:href="#m79cd8262fe" x="325.44" y="61.042251" style="fill-opacity: 0; stroke: #000000"/>
     <use xlink:href="#m79cd8262fe" x="325.44" y="61.042251" style="fill-opacity: 0; stroke: #000000"/>
     <use xlink:href="#m79cd8262fe" x="325.44" y="61.042251" style="fill-opacity: 0; stroke: #000000"/>
     <use xlink:href="#m79cd8262fe" x="325.44" y="61.042251" style="fill-opacity: 0; stroke: #000000"/>
     <use xlink:href="#m79cd8262fe" x="325.44" y="61.042251" style="fill-opacity: 0; stroke: #000000"/>
     <use xlink:href="#m79cd8262fe" x="325.44" y="61.042251" style="fill-opacity: 0; stroke: #000000"/>
     <use xlink:href="#m79cd8262fe" x="325.44" y="86.192083" style="fill-opacity: 0; stroke: #000000"/>
     <use xlink:href="#m79cd8262fe" x="325.44" y="86.192083" style="fill-opacity: 0; stroke: #000000"/>
     <use xlink:href="#m79cd8262fe" x="325.44" y="86.192083" style="fill-opacity: 0; stroke: #000000"/>
     <use xlink:href="#m79cd8262fe" x="325.44" y="86.192083" style="fill-opacity: 0; stroke: #000000"/>
     <use xlink:href="#m79cd8262fe" x="325.44" y="86.192083" style="fill-opacity: 0; stroke: #000000"/>
     <use xlink:href="#m79cd8262fe" x="325.44" y="86.192083" style="fill-opacity: 0; stroke: #000000"/>
     <use xlink:href="#m79cd8262fe" x="325.44" y="86.192083" style="fill-opacity: 0; stroke: #000000"/>
     <use xlink:href="#m79cd8262fe" x="325.44" y="86.192083" style="fill-opacity: 0; stroke: #000000"/>
     <use xlink:href="#m79cd8262fe" x="325.44" y="86.192083" style="fill-opacity: 0; stroke: #000000"/>
     <use xlink:href="#m79cd8262fe" x="325.44" y="86.192083" style="fill-opacity: 0; stroke: #000000"/>
     <use xlink:href="#m79cd8262fe" x="325.44" y="60.560764" style="fill-opacity: 0; stroke: #000000"/>
     <use xlink:href="#m79cd8262fe" x="325.44" y="60.560764" style="fill-opacity: 0; stroke: #000000"/>
     <use xlink:href="#m79cd8262fe" x="325.44" y="60.560764" style="fill-opacity: 0; stroke: #000000"/>
     <use xlink:href="#m79cd8262fe" x="325.44" y="60.560764" style="fill-opacity: 0; stroke: #000000"/>
     <use xlink:href="#m79cd8262fe" x="325.44" y="60.560764" style="fill-opacity: 0; stroke: #000000"/>
     <use xlink:href="#m79cd8262fe" x="325.44" y="60.560764" style="fill-opacity: 0; stroke: #000000"/>
     <use xlink:href="#m79cd8262fe" x="325.44" y="60.560764" style="fill-opacity: 0; stroke: #000000"/>
     <use xlink:href="#m79cd8262fe" x="325.44" y="60.560764" style="fill-opacity: 0; stroke: #000000"/>
     <use xlink:href="#m79cd8262fe" x="325.44" y="60.560764" style="fill-opacity: 0; stroke: #000000"/>
     <use xlink:href="#m79cd8262fe" x="325.44" y="164.277253" style="fill-opacity: 0; stroke: #000000"/>
     <use xlink:href="#m79cd8262fe" x="325.44" y="164.277253" style="fill-opacity: 0; stroke: #000000"/>
     <use xlink:href="#m79cd8262fe" x="325.44" y="164.277253" style="fill-opacity: 0; stroke: #000000"/>
     <use xlink:href="#m79cd8262fe" x="325.44" y="164.277253" style="fill-opacity: 0; stroke: #000000"/>
     <use xlink:href="#m79cd8262fe" x="325.44" y="164.277253" style="fill-opacity: 0; stroke: #000000"/>
     <use xlink:href="#m79cd8262fe" x="325.44" y="164.277253" style="fill-opacity: 0; stroke: #000000"/>
     <use xlink:href="#m79cd8262fe" x="325.44" y="164.277253" style="fill-opacity: 0; stroke: #000000"/>
     <use xlink:href="#m79cd8262fe" x="325.44" y="164.277253" style="fill-opacity: 0; stroke: #000000"/>
     <use xlink:href="#m79cd8262fe" x="325.44" y="164.277253" style="fill-opacity: 0; stroke: #000000"/>
     <use xlink:href="#m79cd8262fe" x="325.44" y="173.22254" style="fill-opacity: 0; stroke: #000000"/>
     <use xlink:href="#m79cd8262fe" x="325.44" y="173.22254" style="fill-opacity: 0; stroke: #000000"/>
     <use xlink:href="#m79cd8262fe" x="325.44" y="173.22254" style="fill-opacity: 0; stroke: #000000"/>
     <use xlink:href="#m79cd8262fe" x="325.44" y="173.22254" style="fill-opacity: 0; stroke: #000000"/>
     <use xlink:href="#m79cd8262fe" x="325.44" y="173.22254" style="fill-opacity: 0; stroke: #000000"/>
     <use xlink:href="#m79cd8262fe" x="325.44" y="173.22254" style="fill-opacity: 0; stroke: #000000"/>
     <use xlink:href="#m79cd8262fe" x="325.44" y="173.22254" style="fill-opacity: 0; stroke: #000000"/>
     <use xlink:href="#m79cd8262fe" x="325.44" y="173.22254" style="fill-opacity: 0; stroke: #000000"/>
     <use xlink:href="#m79cd8262fe" x="325.44" y="173.22254" style="fill-opacity: 0; stroke: #000000"/>
     <use xlink:href="#m79cd8262fe" x="325.44" y="173.22254" style="fill-opacity: 0; stroke: #000000"/>
     <use xlink:href="#m79cd8262fe" x="325.44" y="133.17549" style="fill-opacity: 0; stroke: #000000"/>
     <use xlink:href="#m79cd8262fe" x="325.44" y="133.17549" style="fill-opacity: 0; stroke: #000000"/>
     <use xlink:href="#m79cd8262fe" x="325.44" y="133.17549" style="fill-opacity: 0; stroke: #000000"/>
     <use xlink:href="#m79cd8262fe" x="325.44" y="133.17549" style="fill-opacity: 0; stroke: #000000"/>
     <use xlink:href="#m79cd8262fe" x="325.44" y="133.17549" style="fill-opacity: 0; stroke: #000000"/>
     <use xlink:href="#m79cd8262fe" x="325.44" y="133.17549" style="fill-opacity: 0; stroke: #000000"/>
     <use xlink:href="#m79cd8262fe" x="325.44" y="133.17549" style="fill-opacity: 0; stroke: #000000"/>
     <use xlink:href="#m79cd8262fe" x="325.44" y="133.17549" style="fill-opacity: 0; stroke: #000000"/>
     <use xlink:href="#m79cd8262fe" x="325.44" y="133.17549" style="fill-opacity: 0; stroke: #000000"/>
     <use xlink:href="#m79cd8262fe" x="325.44" y="133.17549" style="fill-opacity: 0; stroke: #000000"/>
     <use xlink:href="#m79cd8262fe" x="325.44" y="78.605017" style="fill-opacity: 0; stroke: #000000"/>
     <use xlink:href="#m79cd8262fe" x="325.44" y="78.605017" style="fill-opacity: 0; stroke: #000000"/>
     <use xlink:href="#m79cd8262fe" x="325.44" y="78.605017" style="fill-opacity: 0; stroke: #000000"/>
     <use xlink:href="#m79cd8262fe" x="325.44" y="78.605017" style="fill-opacity: 0; stroke: #000000"/>
     <use xlink:href="#m79cd8262fe" x="325.44" y="78.605017" style="fill-opacity: 0; stroke: #000000"/>
     <use xlink:href="#m79cd8262fe" x="325.44" y="78.605017" style="fill-opacity: 0; stroke: #000000"/>
     <use xlink:href="#m79cd8262fe" x="325.44" y="78.605017" style="fill-opacity: 0; stroke: #000000"/>
     <use xlink:href="#m79cd8262fe" x="325.44" y="78.605017" style="fill-opacity: 0; stroke: #000000"/>
     <use xlink:href="#m79cd8262fe" x="325.44" y="78.605017" style="fill-opacity: 0; stroke: #000000"/>
     <use xlink:href="#m79cd8262fe" x="325.44" y="178.606048" style="fill-opacity: 0; stroke: #000000"/>
     <use xlink:href="#m79cd8262fe" x="325.44" y="178.606048" style="fill-opacity: 0; stroke: #000000"/>
     <use xlink:href="#m79cd8262fe" x="325.44" y="178.606048" style="fill-opacity: 0; stroke: #000000"/>
     <use xlink:href="#m79cd8262fe" x="325.44" y="178.606048" style="fill-opacity: 0; stroke: #000000"/>
     <use xlink:href="#m79cd8262fe" x="325.44" y="178.606048" style="fill-opacity: 0; stroke: #000000"/>
     <use xlink:href="#m79cd8262fe" x="325.44" y="178.606048" style="fill-opacity: 0; stroke: #000000"/>
     <use xlink:href="#m79cd8262fe" x="325.44" y="178.606048" style="fill-opacity: 0; stroke: #000000"/>
     <use xlink:href="#m79cd8262fe" x="325.44" y="178.606048" style="fill-opacity: 0; stroke: #000000"/>
     <use xlink:href="#m79cd8262fe" x="325.44" y="178.606048" style="fill-opacity: 0; stroke: #000000"/>
     <use xlink:href="#m79cd8262fe" x="325.44" y="178.606048" style="fill-opacity: 0; stroke: #000000"/>
     <use xlink:href="#m79cd8262fe" x="325.44" y="114.124752" style="fill-opacity: 0; stroke: #000000"/>
     <use xlink:href="#m79cd8262fe" x="325.44" y="114.124752" style="fill-opacity: 0; stroke: #000000"/>
     <use xlink:href="#m79cd8262fe" x="325.44" y="114.124752" style="fill-opacity: 0; stroke: #000000"/>
     <use xlink:href="#m79cd8262fe" x="325.44" y="114.124752" style="fill-opacity: 0; stroke: #000000"/>
     <use xlink:href="#m79cd8262fe" x="325.44" y="114.124752" style="fill-opacity: 0; stroke: #000000"/>
     <use xlink:href="#m79cd8262fe" x="325.44" y="114.124752" style="fill-opacity: 0; stroke: #000000"/>
     <use xlink:href="#m79cd8262fe" x="325.44" y="114.124752" style="fill-opacity: 0; stroke: #000000"/>
     <use xlink:href="#m79cd8262fe" x="325.44" y="114.124752" style="fill-opacity: 0; stroke: #000000"/>
     <use xlink:href="#m79cd8262fe" x="325.44" y="114.124752" style="fill-opacity: 0; stroke: #000000"/>
     <use xlink:href="#m79cd8262fe" x="325.44" y="63.282763" style="fill-opacity: 0; stroke: #000000"/>
     <use xlink:href="#m79cd8262fe" x="325.44" y="63.282763" style="fill-opacity: 0; stroke: #000000"/>
     <use xlink:href="#m79cd8262fe" x="325.44" y="63.282763" style="fill-opacity: 0; stroke: #000000"/>
     <use xlink:href="#m79cd8262fe" x="325.44" y="63.282763" style="fill-opacity: 0; stroke: #000000"/>
     <use xlink:href="#m79cd8262fe" x="325.44" y="63.282763" style="fill-opacity: 0; stroke: #000000"/>
     <use xlink:href="#m79cd8262fe" x="325.44" y="63.282763" style="fill-opacity: 0; stroke: #000000"/>
     <use xlink:href="#m79cd8262fe" x="325.44" y="63.282763" style="fill-opacity: 0; stroke: #000000"/>
     <use xlink:href="#m79cd8262fe" x="325.44" y="63.282763" style="fill-opacity: 0; stroke: #000000"/>
     <use xlink:href="#m79cd8262fe" x="325.44" y="63.282763" style="fill-opacity: 0; stroke: #000000"/>
     <use xlink:href="#m79cd8262fe" x="325.44" y="63.282763" style="fill-opacity: 0; stroke: #000000"/>
     <use xlink:href="#m79cd8262fe" x="325.44" y="148.428525" style="fill-opacity: 0; stroke: #000000"/>
     <use xlink:href="#m79cd8262fe" x="325.44" y="148.428525" style="fill-opacity: 0; stroke: #000000"/>
     <use xlink:href="#m79cd8262fe" x="325.44" y="148.428525" style="fill-opacity: 0; stroke: #000000"/>
     <use xlink:href="#m79cd8262fe" x="325.44" y="148.428525" style="fill-opacity: 0; stroke: #000000"/>
     <use xlink:href="#m79cd8262fe" x="325.44" y="148.428525" style="fill-opacity: 0; stroke: #000000"/>
     <use xlink:href="#m79cd8262fe" x="325.44" y="148.428525" style="fill-opacity: 0; stroke: #000000"/>
     <use xlink:href="#m79cd8262fe" x="325.44" y="148.428525" style="fill-opacity: 0; stroke: #000000"/>
     <use xlink:href="#m79cd8262fe" x="325.44" y="148.428525" style="fill-opacity: 0; stroke: #000000"/>
     <use xlink:href="#m79cd8262fe" x="325.44" y="148.428525" style="fill-opacity: 0; stroke: #000000"/>
     <use xlink:href="#m79cd8262fe" x="325.44" y="148.428525" style="fill-opacity: 0; stroke: #000000"/>
     <use xlink:href="#m79cd8262fe" x="325.44" y="186.926028" style="fill-opacity: 0; stroke: #000000"/>
     <use xlink:href="#m79cd8262fe" x="325.44" y="186.926028" style="fill-opacity: 0; stroke: #000000"/>
     <use xlink:href="#m79cd8262fe" x="325.44" y="186.926028" style="fill-opacity: 0; stroke: #000000"/>
     <use xlink:href="#m79cd8262fe" x="325.44" y="186.926028" style="fill-opacity: 0; stroke: #000000"/>
     <use xlink:href="#m79cd8262fe" x="325.44" y="186.926028" style="fill-opacity: 0; stroke: #000000"/>
     <use xlink:href="#m79cd8262fe" x="325.44" y="186.926028" style="fill-opacity: 0; stroke: #000000"/>
     <use xlink:href="#m79cd8262fe" x="325.44" y="186.926028" style="fill-opacity: 0; stroke: #000000"/>
     <use xlink:href="#m79cd8262fe" x="325.44" y="186.926028" style="fill-opacity: 0; stroke: #000000"/>
     <use xlink:href="#m79cd8262fe" x="325.44" y="186.926028" style="fill-opacity: 0; stroke: #000000"/>
     <use xlink:href="#m79cd8262fe" x="325.44" y="153.70191" style="fill-opacity: 0; stroke: #000000"/>
     <use xlink:href="#m79cd8262fe" x="325.44" y="153.70191" style="fill-opacity: 0; stroke: #000000"/>
     <use xlink:href="#m79cd8262fe" x="325.44" y="153.70191" style="fill-opacity: 0; stroke: #000000"/>
     <use xlink:href="#m79cd8262fe" x="325.44" y="153.70191" style="fill-opacity: 0; stroke: #000000"/>
     <use xlink:href="#m79cd8262fe" x="325.44" y="153.70191" style="fill-opacity: 0; stroke: #000000"/>
     <use xlink:href="#m79cd8262fe" x="325.44" y="153.70191" style="fill-opacity: 0; stroke: #000000"/>
     <use xlink:href="#m79cd8262fe" x="325.44" y="153.70191" style="fill-opacity: 0; stroke: #000000"/>
     <use xlink:href="#m79cd8262fe" x="325.44" y="153.70191" style="fill-opacity: 0; stroke: #000000"/>
     <use xlink:href="#m79cd8262fe" x="325.44" y="153.70191" style="fill-opacity: 0; stroke: #000000"/>
     <use xlink:href="#m79cd8262fe" x="325.44" y="153.70191" style="fill-opacity: 0; stroke: #000000"/>
     <use xlink:href="#m79cd8262fe" x="325.44" y="56.507207" style="fill-opacity: 0; stroke: #000000"/>
     <use xlink:href="#m79cd8262fe" x="325.44" y="56.507207" style="fill-opacity: 0; stroke: #000000"/>
     <use xlink:href="#m79cd8262fe" x="325.44" y="56.507207" style="fill-opacity: 0; stroke: #000000"/>
     <use xlink:href="#m79cd8262fe" x="325.44" y="56.507207" style="fill-opacity: 0; stroke: #000000"/>
     <use xlink:href="#m79cd8262fe" x="325.44" y="56.507207" style="fill-opacity: 0; stroke: #000000"/>
     <use xlink:href="#m79cd8262fe" x="325.44" y="56.507207" style="fill-opacity: 0; stroke: #000000"/>
     <use xlink:href="#m79cd8262fe" x="325.44" y="56.507207" style="fill-opacity: 0; stroke: #000000"/>
     <use xlink:href="#m79cd8262fe" x="325.44" y="56.507207" style="fill-opacity: 0; stroke: #000000"/>
     <use xlink:href="#m79cd8262fe" x="325.44" y="56.507207" style="fill-opacity: 0; stroke: #000000"/>
     <use xlink:href="#m79cd8262fe" x="325.44" y="192.801662" style="fill-opacity: 0; stroke: #000000"/>
     <use xlink:href="#m79cd8262fe" x="325.44" y="192.801662" style="fill-opacity: 0; stroke: #000000"/>
     <use xlink:href="#m79cd8262fe" x="325.44" y="192.801662" style="fill-opacity: 0; stroke: #000000"/>
     <use xlink:href="#m79cd8262fe" x="325.44" y="192.801662" style="fill-opacity: 0; stroke: #000000"/>
     <use xlink:href="#m79cd8262fe" x="325.44" y="192.801662" style="fill-opacity: 0; stroke: #000000"/>
     <use xlink:href="#m79cd8262fe" x="325.44" y="192.801662" style="fill-opacity: 0; stroke: #000000"/>
     <use xlink:href="#m79cd8262fe" x="325.44" y="192.801662" style="fill-opacity: 0; stroke: #000000"/>
     <use xlink:href="#m79cd8262fe" x="325.44" y="192.801662" style="fill-opacity: 0; stroke: #000000"/>
     <use xlink:href="#m79cd8262fe" x="325.44" y="192.801662" style="fill-opacity: 0; stroke: #000000"/>
     <use xlink:href="#m79cd8262fe" x="325.44" y="192.801662" style="fill-opacity: 0; stroke: #000000"/>
     <use xlink:href="#m79cd8262fe" x="325.44" y="194.742895" style="fill-opacity: 0; stroke: #000000"/>
     <use xlink:href="#m79cd8262fe" x="325.44" y="194.742895" style="fill-opacity: 0; stroke: #000000"/>
     <use xlink:href="#m79cd8262fe" x="325.44" y="194.742895" style="fill-opacity: 0; stroke: #000000"/>
     <use xlink:href="#m79cd8262fe" x="325.44" y="194.742895" style="fill-opacity: 0; stroke: #000000"/>
     <use xlink:href="#m79cd8262fe" x="325.44" y="194.742895" style="fill-opacity: 0; stroke: #000000"/>
     <use xlink:href="#m79cd8262fe" x="325.44" y="194.742895" style="fill-opacity: 0; stroke: #000000"/>
     <use xlink:href="#m79cd8262fe" x="325.44" y="194.742895" style="fill-opacity: 0; stroke: #000000"/>
     <use xlink:href="#m79cd8262fe" x="325.44" y="194.742895" style="fill-opacity: 0; stroke: #000000"/>
     <use xlink:href="#m79cd8262fe" x="325.44" y="194.742895" style="fill-opacity: 0; stroke: #000000"/>
     <use xlink:href="#m79cd8262fe" x="325.44" y="176.372658" style="fill-opacity: 0; stroke: #000000"/>
     <use xlink:href="#m79cd8262fe" x="325.44" y="176.372658" style="fill-opacity: 0; stroke: #000000"/>
     <use xlink:href="#m79cd8262fe" x="325.44" y="176.372658" style="fill-opacity: 0; stroke: #000000"/>
     <use xlink:href="#m79cd8262fe" x="325.44" y="176.372658" style="fill-opacity: 0; stroke: #000000"/>
     <use xlink:href="#m79cd8262fe" x="325.44" y="176.372658" style="fill-opacity: 0; stroke: #000000"/>
    </g>
   </g>
   <g id="line2d_21">
    <path d="M 133.488 263.903491 
L 160.272 263.903491 
" clip-path="url(#pc1410a3be6)" style="fill: none; stroke: #000000; stroke-linecap: square"/>
   </g>
   <g id="line2d_22">
    <path d="M 312.048 260.295335 
L 338.832 260.295335 
" clip-path="url(#pc1410a3be6)" style="fill: none; stroke: #000000; stroke-linecap: square"/>
   </g>
   <g id="patch_3">
    <path d="M 57.6 307.584 
L 57.6 41.472 
" style="fill: none; stroke: #000000; stroke-width: 0.8; stroke-linejoin: miter; stroke-linecap: square"/>
   </g>
   <g id="patch_4">
    <path d="M 57.6 307.584 
L 414.72 307.584 
" style="fill: none; stroke: #000000; stroke-width: 0.8; stroke-linejoin: miter; stroke-linecap: square"/>
   </g>
  </g>
 </g>
 <defs>
  <clipPath id="pc1410a3be6">
   <rect x="57.6" y="41.472" width="357.12" height="266.112"/>
  </clipPath>
 </defs>
</svg>
