<?xml version="1.0" encoding="utf-8" standalone="no"?>
<!DOCTYPE svg PUBLIC "-//W3C//DTD SVG 1.1//EN"
  "http://www.w3.org/Graphics/SVG/1.1/DTD/svg11.dtd">
<svg xmlns:xlink="http://www.w3.org/1999/xlink" width="460.8pt" height="345.6pt" viewBox="0 0 460.8 345.6" xmlns="http://www.w3.org/2000/svg" version="1.1">
 <metadata>
  <rdf:RDF xmlns:dc="http://purl.org/dc/elements/1.1/" xmlns:cc="http://creativecommons.org/ns#" xmlns:rdf="http://www.w3.org/1999/02/22-rdf-syntax-ns#">
   <cc:Work>
    <dc:type rdf:resource="http://purl.org/dc/dcmitype/StillImage"/>
    <dc:date>2024-03-01T21:09:42.570605</dc:date>
    <dc:format>image/svg+xml</dc:format>
    <dc:creator>
     <cc:Agent>
      <dc:title>Matplotlib v3.5.1, https://matplotlib.org/</dc:title>
     </cc:Agent>
    </dc:creator>
   </cc:Work>
  </rdf:RDF>
 </metadata>
 <defs>
  <style type="text/css">*{stroke-linejoin: round; stroke-linecap: butt}</style>
 </defs>
 <g id="figure_1">
  <g id="patch_1">
   <path d="M 0 345.6 
L 460.8 345.6 
L 460.8 0 
L 0 0 
z
" style="fill: #ffffff"/>
  </g>
  <g id="axes_1">
   <g id="patch_2">
    <path d="M 57.6 307.584 
L 414.72 307.584 
L 414.72 41.472 
L 57.6 41.472 
z
" style="fill: #ffffff"/>
   </g>
   <g id="PolyCollection_1">
    <defs>
     <path id="m6478e9bb26" d="M 175.571815 -225.025602 
L 118.188185 -225.025602 
L 117.229515 -225.702435 
L 116.333142 -226.379267 
L 115.503178 -227.056099 
L 114.742698 -227.732932 
L 114.053682 -228.409764 
L 113.43699 -229.086596 
L 112.892352 -229.763428 
L 112.4184 -230.440261 
L 112.012711 -231.117093 
L 111.671884 -231.793925 
L 111.391637 -232.470758 
L 111.166919 -233.14759 
L 110.992044 -233.824422 
L 110.860828 -234.501255 
L 110.766743 -235.178087 
L 110.703069 -235.854919 
L 110.663036 -236.531751 
L 110.639979 -237.208584 
L 110.627464 -237.885416 
L 110.619412 -238.562248 
L 110.610203 -239.239081 
L 110.594762 -239.915913 
L 110.568626 -240.592745 
L 110.527992 -241.269578 
L 110.469739 -241.94641 
L 110.391436 -242.623242 
L 110.291329 -243.300074 
L 110.168312 -243.976907 
L 110.021883 -244.653739 
L 109.852088 -245.330571 
L 109.659458 -246.007404 
L 109.44494 -246.684236 
L 109.209826 -247.361068 
L 108.955677 -248.037901 
L 108.684259 -248.714733 
L 108.397478 -249.391565 
L 108.097323 -250.068397 
L 107.785821 -250.74523 
L 107.465 -251.422062 
L 107.136861 -252.098894 
L 106.803368 -252.775727 
L 106.466438 -253.452559 
L 106.12795 -254.129391 
L 105.789761 -254.806224 
L 105.453723 -255.483056 
L 105.121717 -256.159888 
L 104.795678 -256.83672 
L 104.477631 -257.513553 
L 104.169721 -258.190385 
L 103.874244 -258.867217 
L 103.593671 -259.54405 
L 103.330664 -260.220882 
L 103.088087 -260.897714 
L 102.869005 -261.574547 
L 102.676675 -262.251379 
L 102.514521 -262.928211 
L 102.386107 -263.605043 
L 102.295088 -264.281876 
L 102.245161 -264.958708 
L 102.24 -265.63554 
L 102.283189 -266.312373 
L 102.378148 -266.989205 
L 102.528054 -267.666037 
L 102.735765 -268.34287 
L 103.003743 -269.019702 
L 103.333985 -269.696534 
L 103.727957 -270.373366 
L 104.186541 -271.050199 
L 104.709989 -271.727031 
L 105.297898 -272.403863 
L 105.949189 -273.080696 
L 106.662107 -273.757528 
L 107.43424 -274.43436 
L 108.262547 -275.111193 
L 109.143402 -275.788025 
L 110.072654 -276.464857 
L 111.045696 -277.141689 
L 112.057547 -277.818522 
L 113.102935 -278.495354 
L 114.176393 -279.172186 
L 115.272352 -279.849019 
L 116.385231 -280.525851 
L 117.509528 -281.202683 
L 118.639906 -281.879516 
L 119.771264 -282.556348 
L 120.898807 -283.23318 
L 122.018096 -283.910012 
L 123.125095 -284.586845 
L 124.216195 -285.263677 
L 125.288232 -285.940509 
L 126.338492 -286.617342 
L 127.364703 -287.294174 
L 128.365016 -287.971006 
L 129.337977 -288.647839 
L 130.282496 -289.324671 
L 131.197804 -290.001503 
L 132.083414 -290.678335 
L 132.939072 -291.355168 
L 133.764718 -292.032 
L 159.995282 -292.032 
L 159.995282 -292.032 
L 160.820928 -291.355168 
L 161.676586 -290.678335 
L 162.562196 -290.001503 
L 163.477504 -289.324671 
L 164.422023 -288.647839 
L 165.394984 -287.971006 
L 166.395297 -287.294174 
L 167.421508 -286.617342 
L 168.471768 -285.940509 
L 169.543805 -285.263677 
L 170.634905 -284.586845 
L 171.741904 -283.910012 
L 172.861193 -283.23318 
L 173.988736 -282.556348 
L 175.120094 -281.879516 
L 176.250472 -281.202683 
L 177.374769 -280.525851 
L 178.487648 -279.849019 
L 179.583607 -279.172186 
L 180.657065 -278.495354 
L 181.702453 -277.818522 
L 182.714304 -277.141689 
L 183.687346 -276.464857 
L 184.616598 -275.788025 
L 185.497453 -275.111193 
L 186.32576 -274.43436 
L 187.097893 -273.757528 
L 187.810811 -273.080696 
L 188.462102 -272.403863 
L 189.050011 -271.727031 
L 189.573459 -271.050199 
L 190.032043 -270.373366 
L 190.426015 -269.696534 
L 190.756257 -269.019702 
L 191.024235 -268.34287 
L 191.231946 -267.666037 
L 191.381852 -266.989205 
L 191.476811 -266.312373 
L 191.52 -265.63554 
L 191.514839 -264.958708 
L 191.464912 -264.281876 
L 191.373893 -263.605043 
L 191.245479 -262.928211 
L 191.083325 -262.251379 
L 190.890995 -261.574547 
L 190.671913 -260.897714 
L 190.429336 -260.220882 
L 190.166329 -259.54405 
L 189.885756 -258.867217 
L 189.590279 -258.190385 
L 189.282369 -257.513553 
L 188.964322 -256.83672 
L 188.638283 -256.159888 
L 188.306277 -255.483056 
L 187.970239 -254.806224 
L 187.63205 -254.129391 
L 187.293562 -253.452559 
L 186.956632 -252.775727 
L 186.623139 -252.098894 
L 186.295 -251.422062 
L 185.974179 -250.74523 
L 185.662677 -250.068397 
L 185.362522 -249.391565 
L 185.075741 -248.714733 
L 184.804323 -248.037901 
L 184.550174 -247.361068 
L 184.31506 -246.684236 
L 184.100542 -246.007404 
L 183.907912 -245.330571 
L 183.738117 -244.653739 
L 183.591688 -243.976907 
L 183.468671 -243.300074 
L 183.368564 -242.623242 
L 183.290261 -241.94641 
L 183.232008 -241.269578 
L 183.191374 -240.592745 
L 183.165238 -239.915913 
L 183.149797 -239.239081 
L 183.140588 -238.562248 
L 183.132536 -237.885416 
L 183.120021 -237.208584 
L 183.096964 -236.531751 
L 183.056931 -235.854919 
L 182.993257 -235.178087 
L 182.899172 -234.501255 
L 182.767956 -233.824422 
L 182.593081 -233.14759 
L 182.368363 -232.470758 
L 182.088116 -231.793925 
L 181.747289 -231.117093 
L 181.3416 -230.440261 
L 180.867648 -229.763428 
L 180.32301 -229.086596 
L 179.706318 -228.409764 
L 179.017302 -227.732932 
L 178.256822 -227.056099 
L 177.426858 -226.379267 
L 176.530485 -225.702435 
L 175.571815 -225.025602 
z
" style="stroke: #000000; stroke-width: 0.6"/>
    </defs>
    <g clip-path="url(#p664ded91c4)">
     <use xlink:href="#m6478e9bb26" x="0" y="345.6" style="fill: #ffffff; stroke: #000000; stroke-width: 0.6"/>
    </g>
   </g>
   <g id="PolyCollection_2">
    <defs>
     <path id="mf772280ba6" d="M 352.569268 -50.112 
L 298.310732 -50.112 
L 296.487883 -50.880926 
L 294.692167 -51.649852 
L 292.941208 -52.418779 
L 291.252619 -53.187705 
L 289.64365 -53.956631 
L 288.130832 -54.725557 
L 286.729637 -55.494484 
L 285.454145 -56.26341 
L 284.316737 -57.032336 
L 283.327826 -57.801262 
L 282.495624 -58.570189 
L 281.825957 -59.339115 
L 281.322138 -60.108041 
L 280.984889 -60.876967 
L 280.812324 -61.645893 
L 280.8 -62.41482 
L 280.941013 -63.183746 
L 281.226168 -63.952672 
L 281.644185 -64.721598 
L 282.181972 -65.490525 
L 282.824926 -66.259451 
L 283.557277 -67.028377 
L 284.36245 -67.797303 
L 285.223458 -68.566229 
L 286.123281 -69.335156 
L 287.045265 -70.104082 
L 287.973483 -70.873008 
L 288.893093 -71.641934 
L 289.790646 -72.410861 
L 290.654363 -73.179787 
L 291.474358 -73.948713 
L 292.242805 -74.717639 
L 292.954052 -75.486566 
L 293.604663 -76.255492 
L 294.193407 -77.024418 
L 294.721186 -77.793344 
L 295.190898 -78.56227 
L 295.607259 -79.331197 
L 295.97657 -80.100123 
L 296.30645 -80.869049 
L 296.605548 -81.637975 
L 296.883221 -82.406902 
L 297.14922 -83.175828 
L 297.413372 -83.944754 
L 297.685269 -84.71368 
L 297.97399 -85.482606 
L 298.287846 -86.251533 
L 298.634167 -87.020459 
L 299.019127 -87.789385 
L 299.44762 -88.558311 
L 299.923185 -89.327238 
L 300.447973 -90.096164 
L 301.02277 -90.86509 
L 301.64705 -91.634016 
L 302.319074 -92.402943 
L 303.036014 -93.171869 
L 303.794102 -93.940795 
L 304.588787 -94.709721 
L 305.414905 -95.478647 
L 306.266847 -96.247574 
L 307.138717 -97.0165 
L 308.024476 -97.785426 
L 308.918074 -98.554352 
L 309.813558 -99.323279 
L 310.705162 -100.092205 
L 311.587379 -100.861131 
L 312.455004 -101.630057 
L 313.303177 -102.398983 
L 314.127401 -103.16791 
L 314.923554 -103.936836 
L 315.687897 -104.705762 
L 316.417078 -105.474688 
L 317.108137 -106.243615 
L 317.758509 -107.012541 
L 318.36604 -107.781467 
L 318.928995 -108.550393 
L 319.446079 -109.31932 
L 319.916456 -110.088246 
L 320.339768 -110.857172 
L 320.716154 -111.626098 
L 321.046267 -112.395024 
L 321.331279 -113.163951 
L 321.572883 -113.932877 
L 321.773279 -114.701803 
L 321.935157 -115.470729 
L 322.061656 -116.239656 
L 322.156317 -117.008582 
L 322.223019 -117.777508 
L 322.265909 -118.546434 
L 322.289318 -119.31536 
L 322.297665 -120.084287 
L 322.295368 -120.853213 
L 322.286742 -121.622139 
L 322.275902 -122.391065 
L 322.26668 -123.159992 
L 322.262532 -123.928918 
L 322.266475 -124.697844 
L 322.281028 -125.46677 
L 322.30817 -126.235697 
L 328.57183 -126.235697 
L 328.57183 -126.235697 
L 328.598972 -125.46677 
L 328.613525 -124.697844 
L 328.617468 -123.928918 
L 328.61332 -123.159992 
L 328.604098 -122.391065 
L 328.593258 -121.622139 
L 328.584632 -120.853213 
L 328.582335 -120.084287 
L 328.590682 -119.31536 
L 328.614091 -118.546434 
L 328.656981 -117.777508 
L 328.723683 -117.008582 
L 328.818344 -116.239656 
L 328.944843 -115.470729 
L 329.106721 -114.701803 
L 329.307117 -113.932877 
L 329.548721 -113.163951 
L 329.833733 -112.395024 
L 330.163846 -111.626098 
L 330.540232 -110.857172 
L 330.963544 -110.088246 
L 331.433921 -109.31932 
L 331.951005 -108.550393 
L 332.51396 -107.781467 
L 333.121491 -107.012541 
L 333.771863 -106.243615 
L 334.462922 -105.474688 
L 335.192103 -104.705762 
L 335.956446 -103.936836 
L 336.752599 -103.16791 
L 337.576823 -102.398983 
L 338.424996 -101.630057 
L 339.292621 -100.861131 
L 340.174838 -100.092205 
L 341.066442 -99.323279 
L 341.961926 -98.554352 
L 342.855524 -97.785426 
L 343.741283 -97.0165 
L 344.613153 -96.247574 
L 345.465095 -95.478647 
L 346.291213 -94.709721 
L 347.085898 -93.940795 
L 347.843986 -93.171869 
L 348.560926 -92.402943 
L 349.23295 -91.634016 
L 349.85723 -90.86509 
L 350.432027 -90.096164 
L 350.956815 -89.327238 
L 351.43238 -88.558311 
L 351.860873 -87.789385 
L 352.245833 -87.020459 
L 352.592154 -86.251533 
L 352.90601 -85.482606 
L 353.194731 -84.71368 
L 353.466628 -83.944754 
L 353.73078 -83.175828 
L 353.996779 -82.406902 
L 354.274452 -81.637975 
L 354.57355 -80.869049 
L 354.90343 -80.100123 
L 355.272741 -79.331197 
L 355.689102 -78.56227 
L 356.158814 -77.793344 
L 356.686593 -77.024418 
L 357.275337 -76.255492 
L 357.925948 -75.486566 
L 358.637195 -74.717639 
L 359.405642 -73.948713 
L 360.225637 -73.179787 
L 361.089354 -72.410861 
L 361.986907 -71.641934 
L 362.906517 -70.873008 
L 363.834735 -70.104082 
L 364.756719 -69.335156 
L 365.656542 -68.566229 
L 366.51755 -67.797303 
L 367.322723 -67.028377 
L 368.055074 -66.259451 
L 368.698028 -65.490525 
L 369.235815 -64.721598 
L 369.653832 -63.952672 
L 369.938987 -63.183746 
L 370.08 -62.41482 
L 370.067676 -61.645893 
L 369.895111 -60.876967 
L 369.557862 -60.108041 
L 369.054043 -59.339115 
L 368.384376 -58.570189 
L 367.552174 -57.801262 
L 366.563263 -57.032336 
L 365.425855 -56.26341 
L 364.150363 -55.494484 
L 362.749168 -54.725557 
L 361.23635 -53.956631 
L 359.627381 -53.187705 
L 357.938792 -52.418779 
L 356.187833 -51.649852 
L 354.392117 -50.880926 
L 352.569268 -50.112 
z
" style="stroke: #000000; stroke-width: 0.6"/>
    </defs>
    <g clip-path="url(#p664ded91c4)">
     <use xlink:href="#mf772280ba6" x="0" y="345.6" style="fill: #ffffff; stroke: #000000; stroke-width: 0.6"/>
    </g>
   </g>
   <g id="matplotlib.axis_1">
    <g id="xtick_1">
     <g id="line2d_1">
      <defs>
       <path id="m94b5758a3d" d="M 0 0 
L 0 3.5 
" style="stroke: #000000; stroke-width: 0.8"/>
      </defs>
      <g>
       <use xlink:href="#m94b5758a3d" x="146.88" y="307.584" style="stroke: #000000; stroke-width: 0.8"/>
      </g>
     </g>
     <g id="text_1">
      <!-- Dekstop -->
      <g transform="translate(126.259687 322.182437)scale(0.1 -0.1)">
       <defs>
        <path id="DejaVuSans-44" d="M 1259 4147 
L 1259 519 
L 2022 519 
Q 2988 519 3436 956 
Q 3884 1394 3884 2338 
Q 3884 3275 3436 3711 
Q 2988 4147 2022 4147 
L 1259 4147 
z
M 628 4666 
L 1925 4666 
Q 3281 4666 3915 4102 
Q 4550 3538 4550 2338 
Q 4550 1131 3912 565 
Q 3275 0 1925 0 
L 628 0 
L 628 4666 
z
" transform="scale(0.015625)"/>
        <path id="DejaVuSans-65" d="M 3597 1894 
L 3597 1613 
L 953 1613 
Q 991 1019 1311 708 
Q 1631 397 2203 397 
Q 2534 397 2845 478 
Q 3156 559 3463 722 
L 3463 178 
Q 3153 47 2828 -22 
Q 2503 -91 2169 -91 
Q 1331 -91 842 396 
Q 353 884 353 1716 
Q 353 2575 817 3079 
Q 1281 3584 2069 3584 
Q 2775 3584 3186 3129 
Q 3597 2675 3597 1894 
z
M 3022 2063 
Q 3016 2534 2758 2815 
Q 2500 3097 2075 3097 
Q 1594 3097 1305 2825 
Q 1016 2553 972 2059 
L 3022 2063 
z
" transform="scale(0.015625)"/>
        <path id="DejaVuSans-6b" d="M 581 4863 
L 1159 4863 
L 1159 1991 
L 2875 3500 
L 3609 3500 
L 1753 1863 
L 3688 0 
L 2938 0 
L 1159 1709 
L 1159 0 
L 581 0 
L 581 4863 
z
" transform="scale(0.015625)"/>
        <path id="DejaVuSans-73" d="M 2834 3397 
L 2834 2853 
Q 2591 2978 2328 3040 
Q 2066 3103 1784 3103 
Q 1356 3103 1142 2972 
Q 928 2841 928 2578 
Q 928 2378 1081 2264 
Q 1234 2150 1697 2047 
L 1894 2003 
Q 2506 1872 2764 1633 
Q 3022 1394 3022 966 
Q 3022 478 2636 193 
Q 2250 -91 1575 -91 
Q 1294 -91 989 -36 
Q 684 19 347 128 
L 347 722 
Q 666 556 975 473 
Q 1284 391 1588 391 
Q 1994 391 2212 530 
Q 2431 669 2431 922 
Q 2431 1156 2273 1281 
Q 2116 1406 1581 1522 
L 1381 1569 
Q 847 1681 609 1914 
Q 372 2147 372 2553 
Q 372 3047 722 3315 
Q 1072 3584 1716 3584 
Q 2034 3584 2315 3537 
Q 2597 3491 2834 3397 
z
" transform="scale(0.015625)"/>
        <path id="DejaVuSans-74" d="M 1172 4494 
L 1172 3500 
L 2356 3500 
L 2356 3053 
L 1172 3053 
L 1172 1153 
Q 1172 725 1289 603 
Q 1406 481 1766 481 
L 2356 481 
L 2356 0 
L 1766 0 
Q 1100 0 847 248 
Q 594 497 594 1153 
L 594 3053 
L 172 3053 
L 172 3500 
L 594 3500 
L 594 4494 
L 1172 4494 
z
" transform="scale(0.015625)"/>
        <path id="DejaVuSans-6f" d="M 1959 3097 
Q 1497 3097 1228 2736 
Q 959 2375 959 1747 
Q 959 1119 1226 758 
Q 1494 397 1959 397 
Q 2419 397 2687 759 
Q 2956 1122 2956 1747 
Q 2956 2369 2687 2733 
Q 2419 3097 1959 3097 
z
M 1959 3584 
Q 2709 3584 3137 3096 
Q 3566 2609 3566 1747 
Q 3566 888 3137 398 
Q 2709 -91 1959 -91 
Q 1206 -91 779 398 
Q 353 888 353 1747 
Q 353 2609 779 3096 
Q 1206 3584 1959 3584 
z
" transform="scale(0.015625)"/>
        <path id="DejaVuSans-70" d="M 1159 525 
L 1159 -1331 
L 581 -1331 
L 581 3500 
L 1159 3500 
L 1159 2969 
Q 1341 3281 1617 3432 
Q 1894 3584 2278 3584 
Q 2916 3584 3314 3078 
Q 3713 2572 3713 1747 
Q 3713 922 3314 415 
Q 2916 -91 2278 -91 
Q 1894 -91 1617 61 
Q 1341 213 1159 525 
z
M 3116 1747 
Q 3116 2381 2855 2742 
Q 2594 3103 2138 3103 
Q 1681 3103 1420 2742 
Q 1159 2381 1159 1747 
Q 1159 1113 1420 752 
Q 1681 391 2138 391 
Q 2594 391 2855 752 
Q 3116 1113 3116 1747 
z
" transform="scale(0.015625)"/>
       </defs>
       <use xlink:href="#DejaVuSans-44"/>
       <use xlink:href="#DejaVuSans-65" x="77.001953"/>
       <use xlink:href="#DejaVuSans-6b" x="138.525391"/>
       <use xlink:href="#DejaVuSans-73" x="196.435547"/>
       <use xlink:href="#DejaVuSans-74" x="248.535156"/>
       <use xlink:href="#DejaVuSans-6f" x="287.744141"/>
       <use xlink:href="#DejaVuSans-70" x="348.925781"/>
      </g>
     </g>
    </g>
    <g id="xtick_2">
     <g id="line2d_2">
      <g>
       <use xlink:href="#m94b5758a3d" x="325.44" y="307.584" style="stroke: #000000; stroke-width: 0.8"/>
      </g>
     </g>
     <g id="text_2">
      <!-- Web -->
      <g transform="translate(314.539219 322.182437)scale(0.1 -0.1)">
       <defs>
        <path id="DejaVuSans-57" d="M 213 4666 
L 850 4666 
L 1831 722 
L 2809 4666 
L 3519 4666 
L 4500 722 
L 5478 4666 
L 6119 4666 
L 4947 0 
L 4153 0 
L 3169 4050 
L 2175 0 
L 1381 0 
L 213 4666 
z
" transform="scale(0.015625)"/>
        <path id="DejaVuSans-62" d="M 3116 1747 
Q 3116 2381 2855 2742 
Q 2594 3103 2138 3103 
Q 1681 3103 1420 2742 
Q 1159 2381 1159 1747 
Q 1159 1113 1420 752 
Q 1681 391 2138 391 
Q 2594 391 2855 752 
Q 3116 1113 3116 1747 
z
M 1159 2969 
Q 1341 3281 1617 3432 
Q 1894 3584 2278 3584 
Q 2916 3584 3314 3078 
Q 3713 2572 3713 1747 
Q 3713 922 3314 415 
Q 2916 -91 2278 -91 
Q 1894 -91 1617 61 
Q 1341 213 1159 525 
L 1159 0 
L 581 0 
L 581 4863 
L 1159 4863 
L 1159 2969 
z
" transform="scale(0.015625)"/>
       </defs>
       <use xlink:href="#DejaVuSans-57"/>
       <use xlink:href="#DejaVuSans-65" x="93.001953"/>
       <use xlink:href="#DejaVuSans-62" x="154.525391"/>
      </g>
     </g>
    </g>
   </g>
   <g id="matplotlib.axis_2">
    <g id="ytick_1">
     <g id="line2d_3">
      <defs>
       <path id="m5c7e89c53d" d="M 0 0 
L -3.5 0 
" style="stroke: #000000; stroke-width: 0.8"/>
      </defs>
      <g>
       <use xlink:href="#m5c7e89c53d" x="57.6" y="284.182809" style="stroke: #000000; stroke-width: 0.8"/>
      </g>
     </g>
     <g id="text_3">
      <!-- 1675 -->
      <g transform="translate(25.15 287.982028)scale(0.1 -0.1)">
       <defs>
        <path id="DejaVuSans-31" d="M 794 531 
L 1825 531 
L 1825 4091 
L 703 3866 
L 703 4441 
L 1819 4666 
L 2450 4666 
L 2450 531 
L 3481 531 
L 3481 0 
L 794 0 
L 794 531 
z
" transform="scale(0.015625)"/>
        <path id="DejaVuSans-36" d="M 2113 2584 
Q 1688 2584 1439 2293 
Q 1191 2003 1191 1497 
Q 1191 994 1439 701 
Q 1688 409 2113 409 
Q 2538 409 2786 701 
Q 3034 994 3034 1497 
Q 3034 2003 2786 2293 
Q 2538 2584 2113 2584 
z
M 3366 4563 
L 3366 3988 
Q 3128 4100 2886 4159 
Q 2644 4219 2406 4219 
Q 1781 4219 1451 3797 
Q 1122 3375 1075 2522 
Q 1259 2794 1537 2939 
Q 1816 3084 2150 3084 
Q 2853 3084 3261 2657 
Q 3669 2231 3669 1497 
Q 3669 778 3244 343 
Q 2819 -91 2113 -91 
Q 1303 -91 875 529 
Q 447 1150 447 2328 
Q 447 3434 972 4092 
Q 1497 4750 2381 4750 
Q 2619 4750 2861 4703 
Q 3103 4656 3366 4563 
z
" transform="scale(0.015625)"/>
        <path id="DejaVuSans-37" d="M 525 4666 
L 3525 4666 
L 3525 4397 
L 1831 0 
L 1172 0 
L 2766 4134 
L 525 4134 
L 525 4666 
z
" transform="scale(0.015625)"/>
        <path id="DejaVuSans-35" d="M 691 4666 
L 3169 4666 
L 3169 4134 
L 1269 4134 
L 1269 2991 
Q 1406 3038 1543 3061 
Q 1681 3084 1819 3084 
Q 2600 3084 3056 2656 
Q 3513 2228 3513 1497 
Q 3513 744 3044 326 
Q 2575 -91 1722 -91 
Q 1428 -91 1123 -41 
Q 819 9 494 109 
L 494 744 
Q 775 591 1075 516 
Q 1375 441 1709 441 
Q 2250 441 2565 725 
Q 2881 1009 2881 1497 
Q 2881 1984 2565 2268 
Q 2250 2553 1709 2553 
Q 1456 2553 1204 2497 
Q 953 2441 691 2322 
L 691 4666 
z
" transform="scale(0.015625)"/>
       </defs>
       <use xlink:href="#DejaVuSans-31"/>
       <use xlink:href="#DejaVuSans-36" x="63.623047"/>
       <use xlink:href="#DejaVuSans-37" x="127.246094"/>
       <use xlink:href="#DejaVuSans-35" x="190.869141"/>
      </g>
     </g>
    </g>
    <g id="ytick_2">
     <g id="line2d_4">
      <g>
       <use xlink:href="#m5c7e89c53d" x="57.6" y="249.411213" style="stroke: #000000; stroke-width: 0.8"/>
      </g>
     </g>
     <g id="text_4">
      <!-- 1700 -->
      <g transform="translate(25.15 253.210432)scale(0.1 -0.1)">
       <defs>
        <path id="DejaVuSans-30" d="M 2034 4250 
Q 1547 4250 1301 3770 
Q 1056 3291 1056 2328 
Q 1056 1369 1301 889 
Q 1547 409 2034 409 
Q 2525 409 2770 889 
Q 3016 1369 3016 2328 
Q 3016 3291 2770 3770 
Q 2525 4250 2034 4250 
z
M 2034 4750 
Q 2819 4750 3233 4129 
Q 3647 3509 3647 2328 
Q 3647 1150 3233 529 
Q 2819 -91 2034 -91 
Q 1250 -91 836 529 
Q 422 1150 422 2328 
Q 422 3509 836 4129 
Q 1250 4750 2034 4750 
z
" transform="scale(0.015625)"/>
       </defs>
       <use xlink:href="#DejaVuSans-31"/>
       <use xlink:href="#DejaVuSans-37" x="63.623047"/>
       <use xlink:href="#DejaVuSans-30" x="127.246094"/>
       <use xlink:href="#DejaVuSans-30" x="190.869141"/>
      </g>
     </g>
    </g>
    <g id="ytick_3">
     <g id="line2d_5">
      <g>
       <use xlink:href="#m5c7e89c53d" x="57.6" y="214.639616" style="stroke: #000000; stroke-width: 0.8"/>
      </g>
     </g>
     <g id="text_5">
      <!-- 1725 -->
      <g transform="translate(25.15 218.438835)scale(0.1 -0.1)">
       <defs>
        <path id="DejaVuSans-32" d="M 1228 531 
L 3431 531 
L 3431 0 
L 469 0 
L 469 531 
Q 828 903 1448 1529 
Q 2069 2156 2228 2338 
Q 2531 2678 2651 2914 
Q 2772 3150 2772 3378 
Q 2772 3750 2511 3984 
Q 2250 4219 1831 4219 
Q 1534 4219 1204 4116 
Q 875 4013 500 3803 
L 500 4441 
Q 881 4594 1212 4672 
Q 1544 4750 1819 4750 
Q 2544 4750 2975 4387 
Q 3406 4025 3406 3419 
Q 3406 3131 3298 2873 
Q 3191 2616 2906 2266 
Q 2828 2175 2409 1742 
Q 1991 1309 1228 531 
z
" transform="scale(0.015625)"/>
       </defs>
       <use xlink:href="#DejaVuSans-31"/>
       <use xlink:href="#DejaVuSans-37" x="63.623047"/>
       <use xlink:href="#DejaVuSans-32" x="127.246094"/>
       <use xlink:href="#DejaVuSans-35" x="190.869141"/>
      </g>
     </g>
    </g>
    <g id="ytick_4">
     <g id="line2d_6">
      <g>
       <use xlink:href="#m5c7e89c53d" x="57.6" y="179.86802" style="stroke: #000000; stroke-width: 0.8"/>
      </g>
     </g>
     <g id="text_6">
      <!-- 1750 -->
      <g transform="translate(25.15 183.667239)scale(0.1 -0.1)">
       <use xlink:href="#DejaVuSans-31"/>
       <use xlink:href="#DejaVuSans-37" x="63.623047"/>
       <use xlink:href="#DejaVuSans-35" x="127.246094"/>
       <use xlink:href="#DejaVuSans-30" x="190.869141"/>
      </g>
     </g>
    </g>
    <g id="ytick_5">
     <g id="line2d_7">
      <g>
       <use xlink:href="#m5c7e89c53d" x="57.6" y="145.096423" style="stroke: #000000; stroke-width: 0.8"/>
      </g>
     </g>
     <g id="text_7">
      <!-- 1775 -->
      <g transform="translate(25.15 148.895642)scale(0.1 -0.1)">
       <use xlink:href="#DejaVuSans-31"/>
       <use xlink:href="#DejaVuSans-37" x="63.623047"/>
       <use xlink:href="#DejaVuSans-37" x="127.246094"/>
       <use xlink:href="#DejaVuSans-35" x="190.869141"/>
      </g>
     </g>
    </g>
    <g id="ytick_6">
     <g id="line2d_8">
      <g>
       <use xlink:href="#m5c7e89c53d" x="57.6" y="110.324827" style="stroke: #000000; stroke-width: 0.8"/>
      </g>
     </g>
     <g id="text_8">
      <!-- 1800 -->
      <g transform="translate(25.15 114.124046)scale(0.1 -0.1)">
       <defs>
        <path id="DejaVuSans-38" d="M 2034 2216 
Q 1584 2216 1326 1975 
Q 1069 1734 1069 1313 
Q 1069 891 1326 650 
Q 1584 409 2034 409 
Q 2484 409 2743 651 
Q 3003 894 3003 1313 
Q 3003 1734 2745 1975 
Q 2488 2216 2034 2216 
z
M 1403 2484 
Q 997 2584 770 2862 
Q 544 3141 544 3541 
Q 544 4100 942 4425 
Q 1341 4750 2034 4750 
Q 2731 4750 3128 4425 
Q 3525 4100 3525 3541 
Q 3525 3141 3298 2862 
Q 3072 2584 2669 2484 
Q 3125 2378 3379 2068 
Q 3634 1759 3634 1313 
Q 3634 634 3220 271 
Q 2806 -91 2034 -91 
Q 1263 -91 848 271 
Q 434 634 434 1313 
Q 434 1759 690 2068 
Q 947 2378 1403 2484 
z
M 1172 3481 
Q 1172 3119 1398 2916 
Q 1625 2713 2034 2713 
Q 2441 2713 2670 2916 
Q 2900 3119 2900 3481 
Q 2900 3844 2670 4047 
Q 2441 4250 2034 4250 
Q 1625 4250 1398 4047 
Q 1172 3844 1172 3481 
z
" transform="scale(0.015625)"/>
       </defs>
       <use xlink:href="#DejaVuSans-31"/>
       <use xlink:href="#DejaVuSans-38" x="63.623047"/>
       <use xlink:href="#DejaVuSans-30" x="127.246094"/>
       <use xlink:href="#DejaVuSans-30" x="190.869141"/>
      </g>
     </g>
    </g>
    <g id="ytick_7">
     <g id="line2d_9">
      <g>
       <use xlink:href="#m5c7e89c53d" x="57.6" y="75.55323" style="stroke: #000000; stroke-width: 0.8"/>
      </g>
     </g>
     <g id="text_9">
      <!-- 1825 -->
      <g transform="translate(25.15 79.352449)scale(0.1 -0.1)">
       <use xlink:href="#DejaVuSans-31"/>
       <use xlink:href="#DejaVuSans-38" x="63.623047"/>
       <use xlink:href="#DejaVuSans-32" x="127.246094"/>
       <use xlink:href="#DejaVuSans-35" x="190.869141"/>
      </g>
     </g>
    </g>
    <g id="text_10">
     <!-- Energy Consumption (J) -->
     <g transform="translate(19.070312 233.703781)rotate(-90)scale(0.1 -0.1)">
      <defs>
       <path id="DejaVuSans-45" d="M 628 4666 
L 3578 4666 
L 3578 4134 
L 1259 4134 
L 1259 2753 
L 3481 2753 
L 3481 2222 
L 1259 2222 
L 1259 531 
L 3634 531 
L 3634 0 
L 628 0 
L 628 4666 
z
" transform="scale(0.015625)"/>
       <path id="DejaVuSans-6e" d="M 3513 2113 
L 3513 0 
L 2938 0 
L 2938 2094 
Q 2938 2591 2744 2837 
Q 2550 3084 2163 3084 
Q 1697 3084 1428 2787 
Q 1159 2491 1159 1978 
L 1159 0 
L 581 0 
L 581 3500 
L 1159 3500 
L 1159 2956 
Q 1366 3272 1645 3428 
Q 1925 3584 2291 3584 
Q 2894 3584 3203 3211 
Q 3513 2838 3513 2113 
z
" transform="scale(0.015625)"/>
       <path id="DejaVuSans-72" d="M 2631 2963 
Q 2534 3019 2420 3045 
Q 2306 3072 2169 3072 
Q 1681 3072 1420 2755 
Q 1159 2438 1159 1844 
L 1159 0 
L 581 0 
L 581 3500 
L 1159 3500 
L 1159 2956 
Q 1341 3275 1631 3429 
Q 1922 3584 2338 3584 
Q 2397 3584 2469 3576 
Q 2541 3569 2628 3553 
L 2631 2963 
z
" transform="scale(0.015625)"/>
       <path id="DejaVuSans-67" d="M 2906 1791 
Q 2906 2416 2648 2759 
Q 2391 3103 1925 3103 
Q 1463 3103 1205 2759 
Q 947 2416 947 1791 
Q 947 1169 1205 825 
Q 1463 481 1925 481 
Q 2391 481 2648 825 
Q 2906 1169 2906 1791 
z
M 3481 434 
Q 3481 -459 3084 -895 
Q 2688 -1331 1869 -1331 
Q 1566 -1331 1297 -1286 
Q 1028 -1241 775 -1147 
L 775 -588 
Q 1028 -725 1275 -790 
Q 1522 -856 1778 -856 
Q 2344 -856 2625 -561 
Q 2906 -266 2906 331 
L 2906 616 
Q 2728 306 2450 153 
Q 2172 0 1784 0 
Q 1141 0 747 490 
Q 353 981 353 1791 
Q 353 2603 747 3093 
Q 1141 3584 1784 3584 
Q 2172 3584 2450 3431 
Q 2728 3278 2906 2969 
L 2906 3500 
L 3481 3500 
L 3481 434 
z
" transform="scale(0.015625)"/>
       <path id="DejaVuSans-79" d="M 2059 -325 
Q 1816 -950 1584 -1140 
Q 1353 -1331 966 -1331 
L 506 -1331 
L 506 -850 
L 844 -850 
Q 1081 -850 1212 -737 
Q 1344 -625 1503 -206 
L 1606 56 
L 191 3500 
L 800 3500 
L 1894 763 
L 2988 3500 
L 3597 3500 
L 2059 -325 
z
" transform="scale(0.015625)"/>
       <path id="DejaVuSans-20" transform="scale(0.015625)"/>
       <path id="DejaVuSans-43" d="M 4122 4306 
L 4122 3641 
Q 3803 3938 3442 4084 
Q 3081 4231 2675 4231 
Q 1875 4231 1450 3742 
Q 1025 3253 1025 2328 
Q 1025 1406 1450 917 
Q 1875 428 2675 428 
Q 3081 428 3442 575 
Q 3803 722 4122 1019 
L 4122 359 
Q 3791 134 3420 21 
Q 3050 -91 2638 -91 
Q 1578 -91 968 557 
Q 359 1206 359 2328 
Q 359 3453 968 4101 
Q 1578 4750 2638 4750 
Q 3056 4750 3426 4639 
Q 3797 4528 4122 4306 
z
" transform="scale(0.015625)"/>
       <path id="DejaVuSans-75" d="M 544 1381 
L 544 3500 
L 1119 3500 
L 1119 1403 
Q 1119 906 1312 657 
Q 1506 409 1894 409 
Q 2359 409 2629 706 
Q 2900 1003 2900 1516 
L 2900 3500 
L 3475 3500 
L 3475 0 
L 2900 0 
L 2900 538 
Q 2691 219 2414 64 
Q 2138 -91 1772 -91 
Q 1169 -91 856 284 
Q 544 659 544 1381 
z
M 1991 3584 
L 1991 3584 
z
" transform="scale(0.015625)"/>
       <path id="DejaVuSans-6d" d="M 3328 2828 
Q 3544 3216 3844 3400 
Q 4144 3584 4550 3584 
Q 5097 3584 5394 3201 
Q 5691 2819 5691 2113 
L 5691 0 
L 5113 0 
L 5113 2094 
Q 5113 2597 4934 2840 
Q 4756 3084 4391 3084 
Q 3944 3084 3684 2787 
Q 3425 2491 3425 1978 
L 3425 0 
L 2847 0 
L 2847 2094 
Q 2847 2600 2669 2842 
Q 2491 3084 2119 3084 
Q 1678 3084 1418 2786 
Q 1159 2488 1159 1978 
L 1159 0 
L 581 0 
L 581 3500 
L 1159 3500 
L 1159 2956 
Q 1356 3278 1631 3431 
Q 1906 3584 2284 3584 
Q 2666 3584 2933 3390 
Q 3200 3197 3328 2828 
z
" transform="scale(0.015625)"/>
       <path id="DejaVuSans-69" d="M 603 3500 
L 1178 3500 
L 1178 0 
L 603 0 
L 603 3500 
z
M 603 4863 
L 1178 4863 
L 1178 4134 
L 603 4134 
L 603 4863 
z
" transform="scale(0.015625)"/>
       <path id="DejaVuSans-28" d="M 1984 4856 
Q 1566 4138 1362 3434 
Q 1159 2731 1159 2009 
Q 1159 1288 1364 580 
Q 1569 -128 1984 -844 
L 1484 -844 
Q 1016 -109 783 600 
Q 550 1309 550 2009 
Q 550 2706 781 3412 
Q 1013 4119 1484 4856 
L 1984 4856 
z
" transform="scale(0.015625)"/>
       <path id="DejaVuSans-4a" d="M 628 4666 
L 1259 4666 
L 1259 325 
Q 1259 -519 939 -900 
Q 619 -1281 -91 -1281 
L -331 -1281 
L -331 -750 
L -134 -750 
Q 284 -750 456 -515 
Q 628 -281 628 325 
L 628 4666 
z
" transform="scale(0.015625)"/>
       <path id="DejaVuSans-29" d="M 513 4856 
L 1013 4856 
Q 1481 4119 1714 3412 
Q 1947 2706 1947 2009 
Q 1947 1309 1714 600 
Q 1481 -109 1013 -844 
L 513 -844 
Q 928 -128 1133 580 
Q 1338 1288 1338 2009 
Q 1338 2731 1133 3434 
Q 928 4138 513 4856 
z
" transform="scale(0.015625)"/>
      </defs>
      <use xlink:href="#DejaVuSans-45"/>
      <use xlink:href="#DejaVuSans-6e" x="63.183594"/>
      <use xlink:href="#DejaVuSans-65" x="126.5625"/>
      <use xlink:href="#DejaVuSans-72" x="188.085938"/>
      <use xlink:href="#DejaVuSans-67" x="227.449219"/>
      <use xlink:href="#DejaVuSans-79" x="290.925781"/>
      <use xlink:href="#DejaVuSans-20" x="350.105469"/>
      <use xlink:href="#DejaVuSans-43" x="381.892578"/>
      <use xlink:href="#DejaVuSans-6f" x="451.716797"/>
      <use xlink:href="#DejaVuSans-6e" x="512.898438"/>
      <use xlink:href="#DejaVuSans-73" x="576.277344"/>
      <use xlink:href="#DejaVuSans-75" x="628.376953"/>
      <use xlink:href="#DejaVuSans-6d" x="691.755859"/>
      <use xlink:href="#DejaVuSans-70" x="789.167969"/>
      <use xlink:href="#DejaVuSans-74" x="852.644531"/>
      <use xlink:href="#DejaVuSans-69" x="891.853516"/>
      <use xlink:href="#DejaVuSans-6f" x="919.636719"/>
      <use xlink:href="#DejaVuSans-6e" x="980.818359"/>
      <use xlink:href="#DejaVuSans-20" x="1044.197266"/>
      <use xlink:href="#DejaVuSans-28" x="1075.984375"/>
      <use xlink:href="#DejaVuSans-4a" x="1114.998047"/>
      <use xlink:href="#DejaVuSans-29" x="1144.490234"/>
     </g>
    </g>
   </g>
   <g id="line2d_10">
    <path d="M 133.488 109.396149 
L 160.272 109.396149 
L 160.272 75.049591 
L 133.488 75.049591 
L 133.488 109.396149 
" clip-path="url(#p664ded91c4)" style="fill: none; stroke: #000000; stroke-width: 0.5; stroke-linecap: square"/>
   </g>
   <g id="line2d_11">
    <path d="M 146.88 109.396149 
L 146.88 120.574398 
" clip-path="url(#p664ded91c4)" style="fill: none; stroke: #000000; stroke-width: 0.5; stroke-linecap: square"/>
   </g>
   <g id="line2d_12">
    <path d="M 146.88 75.049591 
L 146.88 53.568 
" clip-path="url(#p664ded91c4)" style="fill: none; stroke: #000000; stroke-width: 0.5; stroke-linecap: square"/>
   </g>
   <g id="line2d_13">
    <path d="M 140.184 120.574398 
L 153.576 120.574398 
" clip-path="url(#p664ded91c4)" style="fill: none; stroke: #000000; stroke-linecap: square"/>
   </g>
   <g id="line2d_14">
    <path d="M 140.184 53.568 
L 153.576 53.568 
" clip-path="url(#p664ded91c4)" style="fill: none; stroke: #000000; stroke-linecap: square"/>
   </g>
   <g id="line2d_15"/>
   <g id="line2d_16">
    <path d="M 312.048 285.934279 
L 338.832 285.934279 
L 338.832 260.096927 
L 312.048 260.096927 
L 312.048 285.934279 
" clip-path="url(#p664ded91c4)" style="fill: none; stroke: #000000; stroke-width: 0.5; stroke-linecap: square"/>
   </g>
   <g id="line2d_17">
    <path d="M 325.44 285.934279 
L 325.44 295.488 
" clip-path="url(#p664ded91c4)" style="fill: none; stroke: #000000; stroke-width: 0.5; stroke-linecap: square"/>
   </g>
   <g id="line2d_18">
    <path d="M 325.44 260.096927 
L 325.44 243.169734 
" clip-path="url(#p664ded91c4)" style="fill: none; stroke: #000000; stroke-width: 0.5; stroke-linecap: square"/>
   </g>
   <g id="line2d_19">
    <path d="M 318.744 295.488 
L 332.136 295.488 
" clip-path="url(#p664ded91c4)" style="fill: none; stroke: #000000; stroke-linecap: square"/>
   </g>
   <g id="line2d_20">
    <path d="M 318.744 243.169734 
L 332.136 243.169734 
" clip-path="url(#p664ded91c4)" style="fill: none; stroke: #000000; stroke-linecap: square"/>
   </g>
   <g id="line2d_21">
    <defs>
     <path id="m8ebf678a88" d="M 0 3 
C 0.795609 3 1.55874 2.683901 2.12132 2.12132 
C 2.683901 1.55874 3 0.795609 3 0 
C 3 -0.795609 2.683901 -1.55874 2.12132 -2.12132 
C 1.55874 -2.683901 0.795609 -3 0 -3 
C -0.795609 -3 -1.55874 -2.683901 -2.12132 -2.12132 
C -2.683901 -1.55874 -3 -0.795609 -3 0 
C -3 0.795609 -2.683901 1.55874 -2.12132 2.12132 
C -1.55874 2.683901 -0.795609 3 0 3 
z
" style="stroke: #000000"/>
    </defs>
    <g clip-path="url(#p664ded91c4)">
     <use xlink:href="#m8ebf678a88" x="325.44" y="219.364303" style="fill-opacity: 0; stroke: #000000"/>
    </g>
   </g>
   <g id="line2d_22">
    <path d="M 133.488 89.162182 
L 160.272 89.162182 
" clip-path="url(#p664ded91c4)" style="fill: none; stroke: #000000; stroke-linecap: square"/>
   </g>
   <g id="line2d_23">
    <path d="M 312.048 277.573111 
L 338.832 277.573111 
" clip-path="url(#p664ded91c4)" style="fill: none; stroke: #000000; stroke-linecap: square"/>
   </g>
   <g id="patch_3">
    <path d="M 57.6 307.584 
L 57.6 41.472 
" style="fill: none; stroke: #000000; stroke-width: 0.8; stroke-linejoin: miter; stroke-linecap: square"/>
   </g>
   <g id="patch_4">
    <path d="M 57.6 307.584 
L 414.72 307.584 
" style="fill: none; stroke: #000000; stroke-width: 0.8; stroke-linejoin: miter; stroke-linecap: square"/>
   </g>
  </g>
 </g>
 <defs>
  <clipPath id="p664ded91c4">
   <rect x="57.6" y="41.472" width="357.12" height="266.112"/>
  </clipPath>
 </defs>
</svg>
