<?xml version="1.0" encoding="utf-8" standalone="no"?>
<!DOCTYPE svg PUBLIC "-//W3C//DTD SVG 1.1//EN"
  "http://www.w3.org/Graphics/SVG/1.1/DTD/svg11.dtd">
<svg xmlns:xlink="http://www.w3.org/1999/xlink" width="460.8pt" height="345.6pt" viewBox="0 0 460.8 345.6" xmlns="http://www.w3.org/2000/svg" version="1.1">
 <metadata>
  <rdf:RDF xmlns:dc="http://purl.org/dc/elements/1.1/" xmlns:cc="http://creativecommons.org/ns#" xmlns:rdf="http://www.w3.org/1999/02/22-rdf-syntax-ns#">
   <cc:Work>
    <dc:type rdf:resource="http://purl.org/dc/dcmitype/StillImage"/>
    <dc:date>2024-03-01T12:12:31.265287</dc:date>
    <dc:format>image/svg+xml</dc:format>
    <dc:creator>
     <cc:Agent>
      <dc:title>Matplotlib v3.5.2, https://matplotlib.org/</dc:title>
     </cc:Agent>
    </dc:creator>
   </cc:Work>
  </rdf:RDF>
 </metadata>
 <defs>
  <style type="text/css">*{stroke-linejoin: round; stroke-linecap: butt}</style>
 </defs>
 <g id="figure_1">
  <g id="patch_1">
   <path d="M 0 345.6 
L 460.8 345.6 
L 460.8 0 
L 0 0 
z
" style="fill: #ffffff"/>
  </g>
  <g id="axes_1">
   <g id="patch_2">
    <path d="M 57.6 307.584 
L 414.72 307.584 
L 414.72 41.472 
L 57.6 41.472 
z
" style="fill: #ffffff"/>
   </g>
   <g id="PolyCollection_1">
    <defs>
     <path id="m4b3fa64b60" d="M 173.858153 -223.337759 
L 119.901847 -223.337759 
L 119.114494 -224.03164 
L 118.3704 -224.725521 
L 117.673655 -225.419402 
L 117.028084 -226.113284 
L 116.437208 -226.807165 
L 115.904215 -227.501046 
L 115.431922 -228.194927 
L 115.022755 -228.888809 
L 114.678719 -229.58269 
L 114.401375 -230.276571 
L 114.191829 -230.970452 
L 114.050713 -231.664333 
L 113.978172 -232.358215 
L 113.973864 -233.052096 
L 114.036946 -233.745977 
L 114.166083 -234.439858 
L 114.359443 -235.13374 
L 114.61471 -235.827621 
L 114.929086 -236.521502 
L 115.299309 -237.215383 
L 115.721666 -237.909264 
L 116.192012 -238.603146 
L 116.705793 -239.297027 
L 117.258071 -239.990908 
L 117.84355 -240.684789 
L 118.456612 -241.378671 
L 119.091348 -242.072552 
L 119.741597 -242.766433 
L 120.400985 -243.460314 
L 121.062973 -244.154196 
L 121.720899 -244.848077 
L 122.368028 -245.541958 
L 122.997604 -246.235839 
L 123.602906 -246.92972 
L 124.177295 -247.623602 
L 124.714281 -248.317483 
L 125.207573 -249.011364 
L 125.65114 -249.705245 
L 126.039266 -250.399127 
L 126.366613 -251.093008 
L 126.628269 -251.786889 
L 126.81981 -252.48077 
L 126.937347 -253.174651 
L 126.977575 -253.868533 
L 126.937819 -254.562414 
L 126.816074 -255.256295 
L 126.61104 -255.950176 
L 126.322151 -256.644058 
L 125.9496 -257.337939 
L 125.494353 -258.03182 
L 124.958159 -258.725701 
L 124.343553 -259.419582 
L 123.653848 -260.113464 
L 122.89312 -260.807345 
L 122.066185 -261.501226 
L 121.178569 -262.195107 
L 120.236467 -262.888989 
L 119.246693 -263.58287 
L 118.216631 -264.276751 
L 117.154162 -264.970632 
L 116.067603 -265.664513 
L 114.965627 -266.358395 
L 113.857183 -267.052276 
L 112.751408 -267.746157 
L 111.657544 -268.440038 
L 110.58484 -269.13392 
L 109.542463 -269.827801 
L 108.539406 -270.521682 
L 107.584396 -271.215563 
L 106.685807 -271.909444 
L 105.851573 -272.603326 
L 105.089107 -273.297207 
L 104.405232 -273.991088 
L 103.806109 -274.684969 
L 103.297179 -275.378851 
L 102.883116 -276.072732 
L 102.567779 -276.766613 
L 102.354188 -277.460494 
L 102.244501 -278.154376 
L 102.24 -278.848257 
L 102.341096 -279.542138 
L 102.547338 -280.236019 
L 102.857433 -280.9299 
L 103.269275 -281.623782 
L 103.779988 -282.317663 
L 104.385969 -283.011544 
L 105.082945 -283.705425 
L 105.866035 -284.399307 
L 106.729813 -285.093188 
L 107.668382 -285.787069 
L 108.675444 -286.48095 
L 109.744382 -287.174831 
L 110.868326 -287.868713 
L 112.040242 -288.562594 
L 113.252996 -289.256475 
L 114.499432 -289.950356 
L 115.772441 -290.644238 
L 117.065024 -291.338119 
L 118.370356 -292.032 
L 175.389644 -292.032 
L 175.389644 -292.032 
L 176.694976 -291.338119 
L 177.987559 -290.644238 
L 179.260568 -289.950356 
L 180.507004 -289.256475 
L 181.719758 -288.562594 
L 182.891674 -287.868713 
L 184.015618 -287.174831 
L 185.084556 -286.48095 
L 186.091618 -285.787069 
L 187.030187 -285.093188 
L 187.893965 -284.399307 
L 188.677055 -283.705425 
L 189.374031 -283.011544 
L 189.980012 -282.317663 
L 190.490725 -281.623782 
L 190.902567 -280.9299 
L 191.212662 -280.236019 
L 191.418904 -279.542138 
L 191.52 -278.848257 
L 191.515499 -278.154376 
L 191.405812 -277.460494 
L 191.192221 -276.766613 
L 190.876884 -276.072732 
L 190.462821 -275.378851 
L 189.953891 -274.684969 
L 189.354768 -273.991088 
L 188.670893 -273.297207 
L 187.908427 -272.603326 
L 187.074193 -271.909444 
L 186.175604 -271.215563 
L 185.220594 -270.521682 
L 184.217537 -269.827801 
L 183.17516 -269.13392 
L 182.102456 -268.440038 
L 181.008592 -267.746157 
L 179.902817 -267.052276 
L 178.794373 -266.358395 
L 177.692397 -265.664513 
L 176.605838 -264.970632 
L 175.543369 -264.276751 
L 174.513307 -263.58287 
L 173.523533 -262.888989 
L 172.581431 -262.195107 
L 171.693815 -261.501226 
L 170.86688 -260.807345 
L 170.106152 -260.113464 
L 169.416447 -259.419582 
L 168.801841 -258.725701 
L 168.265647 -258.03182 
L 167.8104 -257.337939 
L 167.437849 -256.644058 
L 167.14896 -255.950176 
L 166.943926 -255.256295 
L 166.822181 -254.562414 
L 166.782425 -253.868533 
L 166.822653 -253.174651 
L 166.94019 -252.48077 
L 167.131731 -251.786889 
L 167.393387 -251.093008 
L 167.720734 -250.399127 
L 168.10886 -249.705245 
L 168.552427 -249.011364 
L 169.045719 -248.317483 
L 169.582705 -247.623602 
L 170.157094 -246.92972 
L 170.762396 -246.235839 
L 171.391972 -245.541958 
L 172.039101 -244.848077 
L 172.697027 -244.154196 
L 173.359015 -243.460314 
L 174.018403 -242.766433 
L 174.668652 -242.072552 
L 175.303388 -241.378671 
L 175.91645 -240.684789 
L 176.501929 -239.990908 
L 177.054207 -239.297027 
L 177.567988 -238.603146 
L 178.038334 -237.909264 
L 178.460691 -237.215383 
L 178.830914 -236.521502 
L 179.14529 -235.827621 
L 179.400557 -235.13374 
L 179.593917 -234.439858 
L 179.723054 -233.745977 
L 179.786136 -233.052096 
L 179.781828 -232.358215 
L 179.709287 -231.664333 
L 179.568171 -230.970452 
L 179.358625 -230.276571 
L 179.081281 -229.58269 
L 178.737245 -228.888809 
L 178.328078 -228.194927 
L 177.855785 -227.501046 
L 177.322792 -226.807165 
L 176.731916 -226.113284 
L 176.086345 -225.419402 
L 175.3896 -224.725521 
L 174.645506 -224.03164 
L 173.858153 -223.337759 
z
" style="stroke: #000000; stroke-width: 0.6"/>
    </defs>
    <g clip-path="url(#pd5b9c65e82)">
     <use xlink:href="#m4b3fa64b60" x="0" y="345.6" style="fill: #ffffff; stroke: #000000; stroke-width: 0.6"/>
    </g>
   </g>
   <g id="PolyCollection_2">
    <defs>
     <path id="mb0e6ec8513" d="M 333.983101 -50.112 
L 316.896899 -50.112 
L 315.982815 -50.470531 
L 314.998559 -50.829062 
L 313.941711 -51.187594 
L 312.810376 -51.546125 
L 311.603344 -51.904656 
L 310.320258 -52.263187 
L 308.961785 -52.621719 
L 307.529797 -52.98025 
L 306.027539 -53.338781 
L 304.459804 -53.697312 
L 302.833076 -54.055844 
L 301.155674 -54.414375 
L 299.437848 -54.772906 
L 297.691854 -55.131437 
L 295.931974 -55.489969 
L 294.174476 -55.8485 
L 292.437516 -56.207031 
L 290.74095 -56.565562 
L 289.106076 -56.924094 
L 287.555271 -57.282625 
L 286.111555 -57.641156 
L 284.798054 -57.999687 
L 283.637406 -58.358219 
L 282.651098 -58.71675 
L 281.858772 -59.075281 
L 281.277529 -59.433812 
L 280.921253 -59.792344 
L 280.8 -60.150875 
L 280.919477 -60.509406 
L 281.280656 -60.867937 
L 281.879533 -61.226469 
L 282.707077 -61.585 
L 283.749362 -61.943531 
L 284.987893 -62.302062 
L 286.400125 -62.660594 
L 287.960143 -63.019125 
L 289.639486 -63.377656 
L 291.408075 -63.736187 
L 293.235197 -64.094719 
L 295.090508 -64.45325 
L 296.944991 -64.811781 
L 298.771844 -65.170312 
L 300.547234 -65.528844 
L 302.2509 -65.887375 
L 303.866579 -66.245906 
L 305.382222 -66.604437 
L 306.790034 -66.962969 
L 308.086305 -67.3215 
L 309.271086 -67.680031 
L 310.347717 -68.038562 
L 311.32225 -68.397094 
L 312.2028 -68.755625 
L 312.998872 -69.114156 
L 313.720697 -69.472687 
L 314.378609 -69.831219 
L 314.982508 -70.18975 
L 315.541414 -70.548281 
L 316.063138 -70.906812 
L 316.554076 -71.265344 
L 317.019127 -71.623875 
L 317.461709 -71.982406 
L 317.883889 -72.340937 
L 318.286573 -72.699468 
L 318.669759 -73.058 
L 319.032811 -73.416531 
L 319.374741 -73.775062 
L 319.694476 -74.133593 
L 319.991081 -74.492125 
L 320.263939 -74.850656 
L 320.512874 -75.209187 
L 320.73821 -75.567718 
L 320.94077 -75.92625 
L 321.121835 -76.284781 
L 321.283041 -76.643312 
L 321.426272 -77.001843 
L 321.553518 -77.360375 
L 321.666749 -77.718906 
L 321.767794 -78.077437 
L 321.858244 -78.435968 
L 321.939396 -78.7945 
L 322.01222 -79.153031 
L 322.077379 -79.511562 
L 322.135267 -79.870093 
L 322.186092 -80.228625 
L 322.229965 -80.587156 
L 322.267007 -80.945687 
L 322.297453 -81.304218 
L 322.321745 -81.66275 
L 322.340602 -82.021281 
L 322.355071 -82.379812 
L 322.366532 -82.738343 
L 322.376688 -83.096875 
L 322.387504 -83.455406 
L 322.401129 -83.813937 
L 322.419795 -84.172468 
L 322.445701 -84.531 
L 322.480889 -84.889531 
L 322.527128 -85.248062 
L 322.585817 -85.606593 
L 328.294183 -85.606593 
L 328.294183 -85.606593 
L 328.352872 -85.248062 
L 328.399111 -84.889531 
L 328.434299 -84.531 
L 328.460205 -84.172468 
L 328.478871 -83.813937 
L 328.492496 -83.455406 
L 328.503312 -83.096875 
L 328.513468 -82.738343 
L 328.524929 -82.379812 
L 328.539398 -82.021281 
L 328.558255 -81.66275 
L 328.582547 -81.304218 
L 328.612993 -80.945687 
L 328.650035 -80.587156 
L 328.693908 -80.228625 
L 328.744733 -79.870093 
L 328.802621 -79.511562 
L 328.86778 -79.153031 
L 328.940604 -78.7945 
L 329.021756 -78.435968 
L 329.112206 -78.077437 
L 329.213251 -77.718906 
L 329.326482 -77.360375 
L 329.453728 -77.001843 
L 329.596959 -76.643312 
L 329.758165 -76.284781 
L 329.93923 -75.92625 
L 330.14179 -75.567718 
L 330.367126 -75.209187 
L 330.616061 -74.850656 
L 330.888919 -74.492125 
L 331.185524 -74.133593 
L 331.505259 -73.775062 
L 331.847189 -73.416531 
L 332.210241 -73.058 
L 332.593427 -72.699468 
L 332.996111 -72.340937 
L 333.418291 -71.982406 
L 333.860873 -71.623875 
L 334.325924 -71.265344 
L 334.816862 -70.906812 
L 335.338586 -70.548281 
L 335.897492 -70.18975 
L 336.501391 -69.831219 
L 337.159303 -69.472687 
L 337.881128 -69.114156 
L 338.6772 -68.755625 
L 339.55775 -68.397094 
L 340.532283 -68.038562 
L 341.608914 -67.680031 
L 342.793695 -67.3215 
L 344.089966 -66.962969 
L 345.497778 -66.604437 
L 347.013421 -66.245906 
L 348.6291 -65.887375 
L 350.332766 -65.528844 
L 352.108156 -65.170312 
L 353.935009 -64.811781 
L 355.789492 -64.45325 
L 357.644803 -64.094719 
L 359.471925 -63.736187 
L 361.240514 -63.377656 
L 362.919857 -63.019125 
L 364.479875 -62.660594 
L 365.892107 -62.302062 
L 367.130638 -61.943531 
L 368.172923 -61.585 
L 369.000467 -61.226469 
L 369.599344 -60.867937 
L 369.960523 -60.509406 
L 370.08 -60.150875 
L 369.958747 -59.792344 
L 369.602471 -59.433812 
L 369.021228 -59.075281 
L 368.228902 -58.71675 
L 367.242594 -58.358219 
L 366.081946 -57.999687 
L 364.768445 -57.641156 
L 363.324729 -57.282625 
L 361.773924 -56.924094 
L 360.13905 -56.565562 
L 358.442484 -56.207031 
L 356.705524 -55.8485 
L 354.948026 -55.489969 
L 353.188146 -55.131437 
L 351.442152 -54.772906 
L 349.724326 -54.414375 
L 348.046924 -54.055844 
L 346.420196 -53.697312 
L 344.852461 -53.338781 
L 343.350203 -52.98025 
L 341.918215 -52.621719 
L 340.559742 -52.263187 
L 339.276656 -51.904656 
L 338.069624 -51.546125 
L 336.938289 -51.187594 
L 335.881441 -50.829062 
L 334.897185 -50.470531 
L 333.983101 -50.112 
z
" style="stroke: #000000; stroke-width: 0.6"/>
    </defs>
    <g clip-path="url(#pd5b9c65e82)">
     <use xlink:href="#mb0e6ec8513" x="0" y="345.6" style="fill: #ffffff; stroke: #000000; stroke-width: 0.6"/>
    </g>
   </g>
   <g id="matplotlib.axis_1">
    <g id="xtick_1">
     <g id="line2d_1">
      <defs>
       <path id="m29eb7c326a" d="M 0 0 
L 0 3.5 
" style="stroke: #000000; stroke-width: 0.8"/>
      </defs>
      <g>
       <use xlink:href="#m29eb7c326a" x="146.88" y="307.584" style="stroke: #000000; stroke-width: 0.8"/>
      </g>
     </g>
     <g id="text_1">
      <!-- Dekstop -->
      <g transform="translate(126.259687 322.182437)scale(0.1 -0.1)">
       <defs>
        <path id="DejaVuSans-44" d="M 1259 4147 
L 1259 519 
L 2022 519 
Q 2988 519 3436 956 
Q 3884 1394 3884 2338 
Q 3884 3275 3436 3711 
Q 2988 4147 2022 4147 
L 1259 4147 
z
M 628 4666 
L 1925 4666 
Q 3281 4666 3915 4102 
Q 4550 3538 4550 2338 
Q 4550 1131 3912 565 
Q 3275 0 1925 0 
L 628 0 
L 628 4666 
z
" transform="scale(0.015625)"/>
        <path id="DejaVuSans-65" d="M 3597 1894 
L 3597 1613 
L 953 1613 
Q 991 1019 1311 708 
Q 1631 397 2203 397 
Q 2534 397 2845 478 
Q 3156 559 3463 722 
L 3463 178 
Q 3153 47 2828 -22 
Q 2503 -91 2169 -91 
Q 1331 -91 842 396 
Q 353 884 353 1716 
Q 353 2575 817 3079 
Q 1281 3584 2069 3584 
Q 2775 3584 3186 3129 
Q 3597 2675 3597 1894 
z
M 3022 2063 
Q 3016 2534 2758 2815 
Q 2500 3097 2075 3097 
Q 1594 3097 1305 2825 
Q 1016 2553 972 2059 
L 3022 2063 
z
" transform="scale(0.015625)"/>
        <path id="DejaVuSans-6b" d="M 581 4863 
L 1159 4863 
L 1159 1991 
L 2875 3500 
L 3609 3500 
L 1753 1863 
L 3688 0 
L 2938 0 
L 1159 1709 
L 1159 0 
L 581 0 
L 581 4863 
z
" transform="scale(0.015625)"/>
        <path id="DejaVuSans-73" d="M 2834 3397 
L 2834 2853 
Q 2591 2978 2328 3040 
Q 2066 3103 1784 3103 
Q 1356 3103 1142 2972 
Q 928 2841 928 2578 
Q 928 2378 1081 2264 
Q 1234 2150 1697 2047 
L 1894 2003 
Q 2506 1872 2764 1633 
Q 3022 1394 3022 966 
Q 3022 478 2636 193 
Q 2250 -91 1575 -91 
Q 1294 -91 989 -36 
Q 684 19 347 128 
L 347 722 
Q 666 556 975 473 
Q 1284 391 1588 391 
Q 1994 391 2212 530 
Q 2431 669 2431 922 
Q 2431 1156 2273 1281 
Q 2116 1406 1581 1522 
L 1381 1569 
Q 847 1681 609 1914 
Q 372 2147 372 2553 
Q 372 3047 722 3315 
Q 1072 3584 1716 3584 
Q 2034 3584 2315 3537 
Q 2597 3491 2834 3397 
z
" transform="scale(0.015625)"/>
        <path id="DejaVuSans-74" d="M 1172 4494 
L 1172 3500 
L 2356 3500 
L 2356 3053 
L 1172 3053 
L 1172 1153 
Q 1172 725 1289 603 
Q 1406 481 1766 481 
L 2356 481 
L 2356 0 
L 1766 0 
Q 1100 0 847 248 
Q 594 497 594 1153 
L 594 3053 
L 172 3053 
L 172 3500 
L 594 3500 
L 594 4494 
L 1172 4494 
z
" transform="scale(0.015625)"/>
        <path id="DejaVuSans-6f" d="M 1959 3097 
Q 1497 3097 1228 2736 
Q 959 2375 959 1747 
Q 959 1119 1226 758 
Q 1494 397 1959 397 
Q 2419 397 2687 759 
Q 2956 1122 2956 1747 
Q 2956 2369 2687 2733 
Q 2419 3097 1959 3097 
z
M 1959 3584 
Q 2709 3584 3137 3096 
Q 3566 2609 3566 1747 
Q 3566 888 3137 398 
Q 2709 -91 1959 -91 
Q 1206 -91 779 398 
Q 353 888 353 1747 
Q 353 2609 779 3096 
Q 1206 3584 1959 3584 
z
" transform="scale(0.015625)"/>
        <path id="DejaVuSans-70" d="M 1159 525 
L 1159 -1331 
L 581 -1331 
L 581 3500 
L 1159 3500 
L 1159 2969 
Q 1341 3281 1617 3432 
Q 1894 3584 2278 3584 
Q 2916 3584 3314 3078 
Q 3713 2572 3713 1747 
Q 3713 922 3314 415 
Q 2916 -91 2278 -91 
Q 1894 -91 1617 61 
Q 1341 213 1159 525 
z
M 3116 1747 
Q 3116 2381 2855 2742 
Q 2594 3103 2138 3103 
Q 1681 3103 1420 2742 
Q 1159 2381 1159 1747 
Q 1159 1113 1420 752 
Q 1681 391 2138 391 
Q 2594 391 2855 752 
Q 3116 1113 3116 1747 
z
" transform="scale(0.015625)"/>
       </defs>
       <use xlink:href="#DejaVuSans-44"/>
       <use xlink:href="#DejaVuSans-65" x="77.001953"/>
       <use xlink:href="#DejaVuSans-6b" x="138.525391"/>
       <use xlink:href="#DejaVuSans-73" x="196.435547"/>
       <use xlink:href="#DejaVuSans-74" x="248.535156"/>
       <use xlink:href="#DejaVuSans-6f" x="287.744141"/>
       <use xlink:href="#DejaVuSans-70" x="348.925781"/>
      </g>
     </g>
    </g>
    <g id="xtick_2">
     <g id="line2d_2">
      <g>
       <use xlink:href="#m29eb7c326a" x="325.44" y="307.584" style="stroke: #000000; stroke-width: 0.8"/>
      </g>
     </g>
     <g id="text_2">
      <!-- Web -->
      <g transform="translate(314.539219 322.182437)scale(0.1 -0.1)">
       <defs>
        <path id="DejaVuSans-57" d="M 213 4666 
L 850 4666 
L 1831 722 
L 2809 4666 
L 3519 4666 
L 4500 722 
L 5478 4666 
L 6119 4666 
L 4947 0 
L 4153 0 
L 3169 4050 
L 2175 0 
L 1381 0 
L 213 4666 
z
" transform="scale(0.015625)"/>
        <path id="DejaVuSans-62" d="M 3116 1747 
Q 3116 2381 2855 2742 
Q 2594 3103 2138 3103 
Q 1681 3103 1420 2742 
Q 1159 2381 1159 1747 
Q 1159 1113 1420 752 
Q 1681 391 2138 391 
Q 2594 391 2855 752 
Q 3116 1113 3116 1747 
z
M 1159 2969 
Q 1341 3281 1617 3432 
Q 1894 3584 2278 3584 
Q 2916 3584 3314 3078 
Q 3713 2572 3713 1747 
Q 3713 922 3314 415 
Q 2916 -91 2278 -91 
Q 1894 -91 1617 61 
Q 1341 213 1159 525 
L 1159 0 
L 581 0 
L 581 4863 
L 1159 4863 
L 1159 2969 
z
" transform="scale(0.015625)"/>
       </defs>
       <use xlink:href="#DejaVuSans-57"/>
       <use xlink:href="#DejaVuSans-65" x="93.001953"/>
       <use xlink:href="#DejaVuSans-62" x="154.525391"/>
      </g>
     </g>
    </g>
   </g>
   <g id="matplotlib.axis_2">
    <g id="ytick_1">
     <g id="line2d_3">
      <defs>
       <path id="m6334e304bb" d="M 0 0 
L -3.5 0 
" style="stroke: #000000; stroke-width: 0.8"/>
      </defs>
      <g>
       <use xlink:href="#m6334e304bb" x="57.6" y="293.933107" style="stroke: #000000; stroke-width: 0.8"/>
      </g>
     </g>
     <g id="text_3">
      <!-- 1625 -->
      <g transform="translate(25.15 297.732326)scale(0.1 -0.1)">
       <defs>
        <path id="DejaVuSans-31" d="M 794 531 
L 1825 531 
L 1825 4091 
L 703 3866 
L 703 4441 
L 1819 4666 
L 2450 4666 
L 2450 531 
L 3481 531 
L 3481 0 
L 794 0 
L 794 531 
z
" transform="scale(0.015625)"/>
        <path id="DejaVuSans-36" d="M 2113 2584 
Q 1688 2584 1439 2293 
Q 1191 2003 1191 1497 
Q 1191 994 1439 701 
Q 1688 409 2113 409 
Q 2538 409 2786 701 
Q 3034 994 3034 1497 
Q 3034 2003 2786 2293 
Q 2538 2584 2113 2584 
z
M 3366 4563 
L 3366 3988 
Q 3128 4100 2886 4159 
Q 2644 4219 2406 4219 
Q 1781 4219 1451 3797 
Q 1122 3375 1075 2522 
Q 1259 2794 1537 2939 
Q 1816 3084 2150 3084 
Q 2853 3084 3261 2657 
Q 3669 2231 3669 1497 
Q 3669 778 3244 343 
Q 2819 -91 2113 -91 
Q 1303 -91 875 529 
Q 447 1150 447 2328 
Q 447 3434 972 4092 
Q 1497 4750 2381 4750 
Q 2619 4750 2861 4703 
Q 3103 4656 3366 4563 
z
" transform="scale(0.015625)"/>
        <path id="DejaVuSans-32" d="M 1228 531 
L 3431 531 
L 3431 0 
L 469 0 
L 469 531 
Q 828 903 1448 1529 
Q 2069 2156 2228 2338 
Q 2531 2678 2651 2914 
Q 2772 3150 2772 3378 
Q 2772 3750 2511 3984 
Q 2250 4219 1831 4219 
Q 1534 4219 1204 4116 
Q 875 4013 500 3803 
L 500 4441 
Q 881 4594 1212 4672 
Q 1544 4750 1819 4750 
Q 2544 4750 2975 4387 
Q 3406 4025 3406 3419 
Q 3406 3131 3298 2873 
Q 3191 2616 2906 2266 
Q 2828 2175 2409 1742 
Q 1991 1309 1228 531 
z
" transform="scale(0.015625)"/>
        <path id="DejaVuSans-35" d="M 691 4666 
L 3169 4666 
L 3169 4134 
L 1269 4134 
L 1269 2991 
Q 1406 3038 1543 3061 
Q 1681 3084 1819 3084 
Q 2600 3084 3056 2656 
Q 3513 2228 3513 1497 
Q 3513 744 3044 326 
Q 2575 -91 1722 -91 
Q 1428 -91 1123 -41 
Q 819 9 494 109 
L 494 744 
Q 775 591 1075 516 
Q 1375 441 1709 441 
Q 2250 441 2565 725 
Q 2881 1009 2881 1497 
Q 2881 1984 2565 2268 
Q 2250 2553 1709 2553 
Q 1456 2553 1204 2497 
Q 953 2441 691 2322 
L 691 4666 
z
" transform="scale(0.015625)"/>
       </defs>
       <use xlink:href="#DejaVuSans-31"/>
       <use xlink:href="#DejaVuSans-36" x="63.623047"/>
       <use xlink:href="#DejaVuSans-32" x="127.246094"/>
       <use xlink:href="#DejaVuSans-35" x="190.869141"/>
      </g>
     </g>
    </g>
    <g id="ytick_2">
     <g id="line2d_4">
      <g>
       <use xlink:href="#m6334e304bb" x="57.6" y="263.213728" style="stroke: #000000; stroke-width: 0.8"/>
      </g>
     </g>
     <g id="text_4">
      <!-- 1650 -->
      <g transform="translate(25.15 267.012947)scale(0.1 -0.1)">
       <defs>
        <path id="DejaVuSans-30" d="M 2034 4250 
Q 1547 4250 1301 3770 
Q 1056 3291 1056 2328 
Q 1056 1369 1301 889 
Q 1547 409 2034 409 
Q 2525 409 2770 889 
Q 3016 1369 3016 2328 
Q 3016 3291 2770 3770 
Q 2525 4250 2034 4250 
z
M 2034 4750 
Q 2819 4750 3233 4129 
Q 3647 3509 3647 2328 
Q 3647 1150 3233 529 
Q 2819 -91 2034 -91 
Q 1250 -91 836 529 
Q 422 1150 422 2328 
Q 422 3509 836 4129 
Q 1250 4750 2034 4750 
z
" transform="scale(0.015625)"/>
       </defs>
       <use xlink:href="#DejaVuSans-31"/>
       <use xlink:href="#DejaVuSans-36" x="63.623047"/>
       <use xlink:href="#DejaVuSans-35" x="127.246094"/>
       <use xlink:href="#DejaVuSans-30" x="190.869141"/>
      </g>
     </g>
    </g>
    <g id="ytick_3">
     <g id="line2d_5">
      <g>
       <use xlink:href="#m6334e304bb" x="57.6" y="232.494349" style="stroke: #000000; stroke-width: 0.8"/>
      </g>
     </g>
     <g id="text_5">
      <!-- 1675 -->
      <g transform="translate(25.15 236.293567)scale(0.1 -0.1)">
       <defs>
        <path id="DejaVuSans-37" d="M 525 4666 
L 3525 4666 
L 3525 4397 
L 1831 0 
L 1172 0 
L 2766 4134 
L 525 4134 
L 525 4666 
z
" transform="scale(0.015625)"/>
       </defs>
       <use xlink:href="#DejaVuSans-31"/>
       <use xlink:href="#DejaVuSans-36" x="63.623047"/>
       <use xlink:href="#DejaVuSans-37" x="127.246094"/>
       <use xlink:href="#DejaVuSans-35" x="190.869141"/>
      </g>
     </g>
    </g>
    <g id="ytick_4">
     <g id="line2d_6">
      <g>
       <use xlink:href="#m6334e304bb" x="57.6" y="201.77497" style="stroke: #000000; stroke-width: 0.8"/>
      </g>
     </g>
     <g id="text_6">
      <!-- 1700 -->
      <g transform="translate(25.15 205.574188)scale(0.1 -0.1)">
       <use xlink:href="#DejaVuSans-31"/>
       <use xlink:href="#DejaVuSans-37" x="63.623047"/>
       <use xlink:href="#DejaVuSans-30" x="127.246094"/>
       <use xlink:href="#DejaVuSans-30" x="190.869141"/>
      </g>
     </g>
    </g>
    <g id="ytick_5">
     <g id="line2d_7">
      <g>
       <use xlink:href="#m6334e304bb" x="57.6" y="171.05559" style="stroke: #000000; stroke-width: 0.8"/>
      </g>
     </g>
     <g id="text_7">
      <!-- 1725 -->
      <g transform="translate(25.15 174.854809)scale(0.1 -0.1)">
       <use xlink:href="#DejaVuSans-31"/>
       <use xlink:href="#DejaVuSans-37" x="63.623047"/>
       <use xlink:href="#DejaVuSans-32" x="127.246094"/>
       <use xlink:href="#DejaVuSans-35" x="190.869141"/>
      </g>
     </g>
    </g>
    <g id="ytick_6">
     <g id="line2d_8">
      <g>
       <use xlink:href="#m6334e304bb" x="57.6" y="140.336211" style="stroke: #000000; stroke-width: 0.8"/>
      </g>
     </g>
     <g id="text_8">
      <!-- 1750 -->
      <g transform="translate(25.15 144.13543)scale(0.1 -0.1)">
       <use xlink:href="#DejaVuSans-31"/>
       <use xlink:href="#DejaVuSans-37" x="63.623047"/>
       <use xlink:href="#DejaVuSans-35" x="127.246094"/>
       <use xlink:href="#DejaVuSans-30" x="190.869141"/>
      </g>
     </g>
    </g>
    <g id="ytick_7">
     <g id="line2d_9">
      <g>
       <use xlink:href="#m6334e304bb" x="57.6" y="109.616832" style="stroke: #000000; stroke-width: 0.8"/>
      </g>
     </g>
     <g id="text_9">
      <!-- 1775 -->
      <g transform="translate(25.15 113.416051)scale(0.1 -0.1)">
       <use xlink:href="#DejaVuSans-31"/>
       <use xlink:href="#DejaVuSans-37" x="63.623047"/>
       <use xlink:href="#DejaVuSans-37" x="127.246094"/>
       <use xlink:href="#DejaVuSans-35" x="190.869141"/>
      </g>
     </g>
    </g>
    <g id="ytick_8">
     <g id="line2d_10">
      <g>
       <use xlink:href="#m6334e304bb" x="57.6" y="78.897453" style="stroke: #000000; stroke-width: 0.8"/>
      </g>
     </g>
     <g id="text_10">
      <!-- 1800 -->
      <g transform="translate(25.15 82.696672)scale(0.1 -0.1)">
       <defs>
        <path id="DejaVuSans-38" d="M 2034 2216 
Q 1584 2216 1326 1975 
Q 1069 1734 1069 1313 
Q 1069 891 1326 650 
Q 1584 409 2034 409 
Q 2484 409 2743 651 
Q 3003 894 3003 1313 
Q 3003 1734 2745 1975 
Q 2488 2216 2034 2216 
z
M 1403 2484 
Q 997 2584 770 2862 
Q 544 3141 544 3541 
Q 544 4100 942 4425 
Q 1341 4750 2034 4750 
Q 2731 4750 3128 4425 
Q 3525 4100 3525 3541 
Q 3525 3141 3298 2862 
Q 3072 2584 2669 2484 
Q 3125 2378 3379 2068 
Q 3634 1759 3634 1313 
Q 3634 634 3220 271 
Q 2806 -91 2034 -91 
Q 1263 -91 848 271 
Q 434 634 434 1313 
Q 434 1759 690 2068 
Q 947 2378 1403 2484 
z
M 1172 3481 
Q 1172 3119 1398 2916 
Q 1625 2713 2034 2713 
Q 2441 2713 2670 2916 
Q 2900 3119 2900 3481 
Q 2900 3844 2670 4047 
Q 2441 4250 2034 4250 
Q 1625 4250 1398 4047 
Q 1172 3844 1172 3481 
z
" transform="scale(0.015625)"/>
       </defs>
       <use xlink:href="#DejaVuSans-31"/>
       <use xlink:href="#DejaVuSans-38" x="63.623047"/>
       <use xlink:href="#DejaVuSans-30" x="127.246094"/>
       <use xlink:href="#DejaVuSans-30" x="190.869141"/>
      </g>
     </g>
    </g>
    <g id="ytick_9">
     <g id="line2d_11">
      <g>
       <use xlink:href="#m6334e304bb" x="57.6" y="48.178074" style="stroke: #000000; stroke-width: 0.8"/>
      </g>
     </g>
     <g id="text_11">
      <!-- 1825 -->
      <g transform="translate(25.15 51.977293)scale(0.1 -0.1)">
       <use xlink:href="#DejaVuSans-31"/>
       <use xlink:href="#DejaVuSans-38" x="63.623047"/>
       <use xlink:href="#DejaVuSans-32" x="127.246094"/>
       <use xlink:href="#DejaVuSans-35" x="190.869141"/>
      </g>
     </g>
    </g>
    <g id="text_12">
     <!-- Energy Consumption (J) -->
     <g transform="translate(19.070312 233.703781)rotate(-90)scale(0.1 -0.1)">
      <defs>
       <path id="DejaVuSans-45" d="M 628 4666 
L 3578 4666 
L 3578 4134 
L 1259 4134 
L 1259 2753 
L 3481 2753 
L 3481 2222 
L 1259 2222 
L 1259 531 
L 3634 531 
L 3634 0 
L 628 0 
L 628 4666 
z
" transform="scale(0.015625)"/>
       <path id="DejaVuSans-6e" d="M 3513 2113 
L 3513 0 
L 2938 0 
L 2938 2094 
Q 2938 2591 2744 2837 
Q 2550 3084 2163 3084 
Q 1697 3084 1428 2787 
Q 1159 2491 1159 1978 
L 1159 0 
L 581 0 
L 581 3500 
L 1159 3500 
L 1159 2956 
Q 1366 3272 1645 3428 
Q 1925 3584 2291 3584 
Q 2894 3584 3203 3211 
Q 3513 2838 3513 2113 
z
" transform="scale(0.015625)"/>
       <path id="DejaVuSans-72" d="M 2631 2963 
Q 2534 3019 2420 3045 
Q 2306 3072 2169 3072 
Q 1681 3072 1420 2755 
Q 1159 2438 1159 1844 
L 1159 0 
L 581 0 
L 581 3500 
L 1159 3500 
L 1159 2956 
Q 1341 3275 1631 3429 
Q 1922 3584 2338 3584 
Q 2397 3584 2469 3576 
Q 2541 3569 2628 3553 
L 2631 2963 
z
" transform="scale(0.015625)"/>
       <path id="DejaVuSans-67" d="M 2906 1791 
Q 2906 2416 2648 2759 
Q 2391 3103 1925 3103 
Q 1463 3103 1205 2759 
Q 947 2416 947 1791 
Q 947 1169 1205 825 
Q 1463 481 1925 481 
Q 2391 481 2648 825 
Q 2906 1169 2906 1791 
z
M 3481 434 
Q 3481 -459 3084 -895 
Q 2688 -1331 1869 -1331 
Q 1566 -1331 1297 -1286 
Q 1028 -1241 775 -1147 
L 775 -588 
Q 1028 -725 1275 -790 
Q 1522 -856 1778 -856 
Q 2344 -856 2625 -561 
Q 2906 -266 2906 331 
L 2906 616 
Q 2728 306 2450 153 
Q 2172 0 1784 0 
Q 1141 0 747 490 
Q 353 981 353 1791 
Q 353 2603 747 3093 
Q 1141 3584 1784 3584 
Q 2172 3584 2450 3431 
Q 2728 3278 2906 2969 
L 2906 3500 
L 3481 3500 
L 3481 434 
z
" transform="scale(0.015625)"/>
       <path id="DejaVuSans-79" d="M 2059 -325 
Q 1816 -950 1584 -1140 
Q 1353 -1331 966 -1331 
L 506 -1331 
L 506 -850 
L 844 -850 
Q 1081 -850 1212 -737 
Q 1344 -625 1503 -206 
L 1606 56 
L 191 3500 
L 800 3500 
L 1894 763 
L 2988 3500 
L 3597 3500 
L 2059 -325 
z
" transform="scale(0.015625)"/>
       <path id="DejaVuSans-20" transform="scale(0.015625)"/>
       <path id="DejaVuSans-43" d="M 4122 4306 
L 4122 3641 
Q 3803 3938 3442 4084 
Q 3081 4231 2675 4231 
Q 1875 4231 1450 3742 
Q 1025 3253 1025 2328 
Q 1025 1406 1450 917 
Q 1875 428 2675 428 
Q 3081 428 3442 575 
Q 3803 722 4122 1019 
L 4122 359 
Q 3791 134 3420 21 
Q 3050 -91 2638 -91 
Q 1578 -91 968 557 
Q 359 1206 359 2328 
Q 359 3453 968 4101 
Q 1578 4750 2638 4750 
Q 3056 4750 3426 4639 
Q 3797 4528 4122 4306 
z
" transform="scale(0.015625)"/>
       <path id="DejaVuSans-75" d="M 544 1381 
L 544 3500 
L 1119 3500 
L 1119 1403 
Q 1119 906 1312 657 
Q 1506 409 1894 409 
Q 2359 409 2629 706 
Q 2900 1003 2900 1516 
L 2900 3500 
L 3475 3500 
L 3475 0 
L 2900 0 
L 2900 538 
Q 2691 219 2414 64 
Q 2138 -91 1772 -91 
Q 1169 -91 856 284 
Q 544 659 544 1381 
z
M 1991 3584 
L 1991 3584 
z
" transform="scale(0.015625)"/>
       <path id="DejaVuSans-6d" d="M 3328 2828 
Q 3544 3216 3844 3400 
Q 4144 3584 4550 3584 
Q 5097 3584 5394 3201 
Q 5691 2819 5691 2113 
L 5691 0 
L 5113 0 
L 5113 2094 
Q 5113 2597 4934 2840 
Q 4756 3084 4391 3084 
Q 3944 3084 3684 2787 
Q 3425 2491 3425 1978 
L 3425 0 
L 2847 0 
L 2847 2094 
Q 2847 2600 2669 2842 
Q 2491 3084 2119 3084 
Q 1678 3084 1418 2786 
Q 1159 2488 1159 1978 
L 1159 0 
L 581 0 
L 581 3500 
L 1159 3500 
L 1159 2956 
Q 1356 3278 1631 3431 
Q 1906 3584 2284 3584 
Q 2666 3584 2933 3390 
Q 3200 3197 3328 2828 
z
" transform="scale(0.015625)"/>
       <path id="DejaVuSans-69" d="M 603 3500 
L 1178 3500 
L 1178 0 
L 603 0 
L 603 3500 
z
M 603 4863 
L 1178 4863 
L 1178 4134 
L 603 4134 
L 603 4863 
z
" transform="scale(0.015625)"/>
       <path id="DejaVuSans-28" d="M 1984 4856 
Q 1566 4138 1362 3434 
Q 1159 2731 1159 2009 
Q 1159 1288 1364 580 
Q 1569 -128 1984 -844 
L 1484 -844 
Q 1016 -109 783 600 
Q 550 1309 550 2009 
Q 550 2706 781 3412 
Q 1013 4119 1484 4856 
L 1984 4856 
z
" transform="scale(0.015625)"/>
       <path id="DejaVuSans-4a" d="M 628 4666 
L 1259 4666 
L 1259 325 
Q 1259 -519 939 -900 
Q 619 -1281 -91 -1281 
L -331 -1281 
L -331 -750 
L -134 -750 
Q 284 -750 456 -515 
Q 628 -281 628 325 
L 628 4666 
z
" transform="scale(0.015625)"/>
       <path id="DejaVuSans-29" d="M 513 4856 
L 1013 4856 
Q 1481 4119 1714 3412 
Q 1947 2706 1947 2009 
Q 1947 1309 1714 600 
Q 1481 -109 1013 -844 
L 513 -844 
Q 928 -128 1133 580 
Q 1338 1288 1338 2009 
Q 1338 2731 1133 3434 
Q 928 4138 513 4856 
z
" transform="scale(0.015625)"/>
      </defs>
      <use xlink:href="#DejaVuSans-45"/>
      <use xlink:href="#DejaVuSans-6e" x="63.183594"/>
      <use xlink:href="#DejaVuSans-65" x="126.5625"/>
      <use xlink:href="#DejaVuSans-72" x="188.085938"/>
      <use xlink:href="#DejaVuSans-67" x="227.449219"/>
      <use xlink:href="#DejaVuSans-79" x="290.925781"/>
      <use xlink:href="#DejaVuSans-20" x="350.105469"/>
      <use xlink:href="#DejaVuSans-43" x="381.892578"/>
      <use xlink:href="#DejaVuSans-6f" x="451.716797"/>
      <use xlink:href="#DejaVuSans-6e" x="512.898438"/>
      <use xlink:href="#DejaVuSans-73" x="576.277344"/>
      <use xlink:href="#DejaVuSans-75" x="628.376953"/>
      <use xlink:href="#DejaVuSans-6d" x="691.755859"/>
      <use xlink:href="#DejaVuSans-70" x="789.167969"/>
      <use xlink:href="#DejaVuSans-74" x="852.644531"/>
      <use xlink:href="#DejaVuSans-69" x="891.853516"/>
      <use xlink:href="#DejaVuSans-6f" x="919.636719"/>
      <use xlink:href="#DejaVuSans-6e" x="980.818359"/>
      <use xlink:href="#DejaVuSans-20" x="1044.197266"/>
      <use xlink:href="#DejaVuSans-28" x="1075.984375"/>
      <use xlink:href="#DejaVuSans-4a" x="1114.998047"/>
      <use xlink:href="#DejaVuSans-29" x="1144.490234"/>
     </g>
    </g>
   </g>
   <g id="line2d_12">
    <path d="M 133.488 110.039512 
L 160.272 110.039512 
L 160.272 65.691417 
L 133.488 65.691417 
L 133.488 110.039512 
" clip-path="url(#pd5b9c65e82)" style="fill: none; stroke: #000000; stroke-width: 0.5; stroke-linecap: square"/>
   </g>
   <g id="line2d_13">
    <path d="M 146.88 110.039512 
L 146.88 122.262241 
" clip-path="url(#pd5b9c65e82)" style="fill: none; stroke: #000000; stroke-width: 0.5; stroke-linecap: square"/>
   </g>
   <g id="line2d_14">
    <path d="M 146.88 65.691417 
L 146.88 53.568 
" clip-path="url(#pd5b9c65e82)" style="fill: none; stroke: #000000; stroke-width: 0.5; stroke-linecap: square"/>
   </g>
   <g id="line2d_15">
    <path d="M 140.184 122.262241 
L 153.576 122.262241 
" clip-path="url(#pd5b9c65e82)" style="fill: none; stroke: #000000; stroke-linecap: square"/>
   </g>
   <g id="line2d_16">
    <path d="M 140.184 53.568 
L 153.576 53.568 
" clip-path="url(#pd5b9c65e82)" style="fill: none; stroke: #000000; stroke-linecap: square"/>
   </g>
   <g id="line2d_17"/>
   <g id="line2d_18">
    <path d="M 312.048 287.501909 
L 338.832 287.501909 
L 338.832 282.535276 
L 312.048 282.535276 
L 312.048 287.501909 
" clip-path="url(#pd5b9c65e82)" style="fill: none; stroke: #000000; stroke-width: 0.5; stroke-linecap: square"/>
   </g>
   <g id="line2d_19">
    <path d="M 325.44 287.501909 
L 325.44 291.994352 
" clip-path="url(#pd5b9c65e82)" style="fill: none; stroke: #000000; stroke-width: 0.5; stroke-linecap: square"/>
   </g>
   <g id="line2d_20">
    <path d="M 325.44 282.535276 
L 325.44 275.310511 
" clip-path="url(#pd5b9c65e82)" style="fill: none; stroke: #000000; stroke-width: 0.5; stroke-linecap: square"/>
   </g>
   <g id="line2d_21">
    <path d="M 318.744 291.994352 
L 332.136 291.994352 
" clip-path="url(#pd5b9c65e82)" style="fill: none; stroke: #000000; stroke-linecap: square"/>
   </g>
   <g id="line2d_22">
    <path d="M 318.744 275.310511 
L 332.136 275.310511 
" clip-path="url(#pd5b9c65e82)" style="fill: none; stroke: #000000; stroke-linecap: square"/>
   </g>
   <g id="line2d_23">
    <defs>
     <path id="m2b1f042ccc" d="M 0 3 
C 0.795609 3 1.55874 2.683901 2.12132 2.12132 
C 2.683901 1.55874 3 0.795609 3 0 
C 3 -0.795609 2.683901 -1.55874 2.12132 -2.12132 
C 1.55874 -2.683901 0.795609 -3 0 -3 
C -0.795609 -3 -1.55874 -2.683901 -2.12132 -2.12132 
C -2.683901 -1.55874 -3 -0.795609 -3 0 
C -3 0.795609 -2.683901 1.55874 -2.12132 2.12132 
C -1.55874 2.683901 -0.795609 3 0 3 
z
" style="stroke: #000000"/>
    </defs>
    <g clip-path="url(#pd5b9c65e82)">
     <use xlink:href="#m2b1f042ccc" x="325.44" y="295.488" style="fill-opacity: 0; stroke: #000000"/>
     <use xlink:href="#m2b1f042ccc" x="325.44" y="267.516126" style="fill-opacity: 0; stroke: #000000"/>
     <use xlink:href="#m2b1f042ccc" x="325.44" y="259.993407" style="fill-opacity: 0; stroke: #000000"/>
     <use xlink:href="#m2b1f042ccc" x="325.44" y="274.574535" style="fill-opacity: 0; stroke: #000000"/>
    </g>
   </g>
   <g id="line2d_24">
    <path d="M 133.488 74.02492 
L 160.272 74.02492 
" clip-path="url(#pd5b9c65e82)" style="fill: none; stroke: #000000; stroke-linecap: square"/>
   </g>
   <g id="line2d_25">
    <path d="M 312.048 284.645277 
L 338.832 284.645277 
" clip-path="url(#pd5b9c65e82)" style="fill: none; stroke: #000000; stroke-linecap: square"/>
   </g>
   <g id="patch_3">
    <path d="M 57.6 307.584 
L 57.6 41.472 
" style="fill: none; stroke: #000000; stroke-width: 0.8; stroke-linejoin: miter; stroke-linecap: square"/>
   </g>
   <g id="patch_4">
    <path d="M 57.6 307.584 
L 414.72 307.584 
" style="fill: none; stroke: #000000; stroke-width: 0.8; stroke-linejoin: miter; stroke-linecap: square"/>
   </g>
  </g>
 </g>
 <defs>
  <clipPath id="pd5b9c65e82">
   <rect x="57.6" y="41.472" width="357.12" height="266.112"/>
  </clipPath>
 </defs>
</svg>
